<svg data-name="Layer 1" xmlns="http://www.w3.org/2000/svg" viewBox="0 0 173.47 30.34"><path d="M0 1.06h8.56V3.5h-6v3.08h6v2.4h-6v5.33H0zM11.74.11a1.57 1.57 0 0 1 1.62 1.5v.14a1.62 1.62 0 0 1-1.61 1.61 1.61 1.61 0 0 1-1.61-1.61A1.57 1.57 0 0 1 11.63.11zm-1.27 4.41H13v9.79h-2.52zM15 4.52h2.48v1.51a2.68 2.68 0 0 1 2.71-1.69 3.57 3.57 0 0 1 1.66.38l-.91 2.48a2.27 2.27 0 0 0-1.31-.35c-1.29 0-2.13.66-2.13 2.31v5.15H15zM22 9.45a5.06 5.06 0 0 1 5-5.13h.15a4.9 4.9 0 0 1 5.07 4.72 2.62 2.62 0 0 1 0 .28v1h-7.81a2.72 2.72 0 0 0 2.82 2.08 2.68 2.68 0 0 0 2.44-1.31l2.06 1.2a5.18 5.18 0 0 1-4.53 2.28 5 5 0 0 1-5.21-4.78 1.82 1.82 0 0 1 .01-.34zm2.49-1.11h5.24a2.5 2.5 0 0 0-2.58-1.89 2.71 2.71 0 0 0-2.61 1.86zM33 4.52h1.62v-.35c0-3.19 1-4.17 4.21-4.17h.66v2.31h-.42c-1.75 0-2 .25-2 1.75v.47h2.41v2.26h-2.37v7.52h-2.49V6.74h-1.63zM40.06 9.43a5.19 5.19 0 0 1 5.11-5.28 5.2 5.2 0 0 1 5.28 5.12 5.19 5.19 0 0 1-5.12 5.28h-.08a5.08 5.08 0 0 1-5.19-5zm7.9 0a2.7 2.7 0 0 0-2.75-2.63 2.68 2.68 0 0 0-2.63 2.75 2.69 2.69 0 0 0 2.69 2.63A2.72 2.72 0 0 0 48 9.49v-.08zM54.22 9.31l-3.48-4.79h3l2.06 2.91 2.08-2.91h3l-3.5 4.81 3.75 5h-3l-2.31-3-2.2 3.08h-3zM.01 16.96h5a4.61 4.61 0 0 1 4.91 4.31 4.62 4.62 0 0 1-4.31 4.92H1.48v4H-.03zm1.51 1.37v6.47h3.37a3.25 3.25 0 0 0 3.24-3.23 3.24 3.24 0 0 0-3.23-3.24H1.48zM12.16 20.39h1.43v1.85a2.7 2.7 0 0 1 2.78-2 3.26 3.26 0 0 1 1.62.36l-.61 1.41a2.17 2.17 0 0 0-1.19-.31c-1.63 0-2.56.94-2.56 3.09v5.31h-1.46zM20.55 16.22a1.16 1.16 0 0 1 1.18 1.16 1.17 1.17 0 0 1-1.16 1.18 1.18 1.18 0 0 1-1.18-1.16 1.14 1.14 0 0 1 1.11-1.17zm-.74 4.17h1.5v9.72h-1.54zM23.06 20.39h1.57l3.15 7.94 3.19-7.94h1.57l-4.09 9.72h-1.46zM33.48 27.47c0-2 1.7-3.17 4.43-3.17h3.08v-.38c0-1.47-1-2.47-2.86-2.47a3.43 3.43 0 0 0-3.1 1.65l-1.28-.81a5.27 5.27 0 0 1 4.4-2.1c2.78 0 4.28 1.54 4.28 3.74v6.18h-1.45v-1.72a5 5 0 0 1-4 1.91c-2.33.04-3.5-1.26-3.5-2.83zm7.51-.64v-1.34h-3c-2 0-3 .66-3 1.87 0 1 .68 1.67 2.22 1.67a4.28 4.28 0 0 0 3.73-2.2zM43.92 20.39h1.89v-2.22l1.46-.94v3.08h2.86v1.32h-2.86v5.54c0 1.25.58 1.73 1.41 1.73a1.53 1.53 0 0 0 1.12-.46l.78 1.17a3.14 3.14 0 0 1-2 .68c-1.78 0-2.77-.94-2.77-3.08v-5.49h-1.89zM51.29 25.3a5 5 0 0 1 4.8-5.12h.29a4.81 4.81 0 0 1 5 4.66v1h-8.61a3.51 3.51 0 0 0 3.7 3.17 3.46 3.46 0 0 0 3.26-1.87l1.26.74a5 5 0 0 1-4.53 2.47 4.88 4.88 0 0 1-5.13-4.62zm1.48-.77h7.06a3.28 3.28 0 0 0-3.45-3 3.62 3.62 0 0 0-3.61 3zM68.23 16.96h1.65l7.43 10.83V16.96h1.46v13.15h-1.56l-7.55-10.92v10.92h-1.47zM81.08 25.3a5 5 0 0 1 4.81-5.11h.28a4.81 4.81 0 0 1 5 4.66 1.5 1.5 0 0 1 0 .3v.67h-8.69a3.52 3.52 0 0 0 3.7 3.17 3.49 3.49 0 0 0 3.3-1.82l1.26.74a5 5 0 0 1-4.54 2.47 4.88 4.88 0 0 1-5.12-4.62v-.46zm1.48-.77h7.07a3.29 3.29 0 0 0-3.46-3 3.63 3.63 0 0 0-3.61 3zM92.2 20.39h1.89v-2.22l1.46-.94v3.08h2.86v1.32h-2.86v5.54c0 1.25.57 1.73 1.41 1.73a1.53 1.53 0 0 0 1.12-.46l.77 1.17a3.09 3.09 0 0 1-2 .68c-1.79 0-2.77-.94-2.77-3.08v-5.49h-1.9zM99.83 20.39h1.55l2.46 7.73 3-7.73h1.37l2.91 7.68 2.55-7.68h1.53l-3.37 9.75h-1.35l-3-7.72-3 7.72h-1.45zM116.22 25.26a5.07 5.07 0 0 1 5.08-5.06 5.08 5.08 0 0 1 5.06 5.08 5.07 5.07 0 0 1-5.08 5.06 5 5 0 0 1-5.06-4.86.81.81 0 0 1 0-.22zm8.63 0a3.57 3.57 0 0 0-3.38-3.75 3.58 3.58 0 0 0-3.76 3.38v.37a3.58 3.58 0 0 0 3.38 3.76 3.58 3.58 0 0 0 3.76-3.38zM128.57 20.39H130v1.85a2.7 2.7 0 0 1 2.77-2 3.27 3.27 0 0 1 1.63.36l-.61 1.41a2.1 2.1 0 0 0-1.19-.31c-1.63 0-2.56.94-2.56 3.09v5.31h-1.46zM139.76 25.39l-2.07 2.21v2.51h-1.46v-14.2h1.46v10l5.17-5.51h1.86l-3.87 4.08 4.1 5.67h-1.79z" fill="#fff"/><rect x="151.77" y="17.8" width="21.7" height="11.37" rx="2.07" fill="#2ac3a2"/><g style="isolation:isolate"><g style="isolation:isolate" fill="#fff"><path d="M154.77 21.17h1.81c1 0 1.54.53 1.54 1.23a1 1 0 0 1-.83 1 1.11 1.11 0 0 1 1 1.16c0 .74-.53 1.29-1.61 1.29h-1.92zm1.71 2a.69.69 0 0 0 .78-.67c0-.36-.26-.63-.76-.63h-.87v1.3zm.07 2c.62 0 .88-.27.88-.64a.77.77 0 0 0-.85-.75h-1v1.39zM159.03 21.17h3.07v.72h-2.22v1.28h2.06v.71h-2.06v1.29h2.24v.72h-3.09z"/></g><path d="M162.86 21.17h3.77v.72h-1.46v4h-.85v-4h-1.46zM166.59 25.85l1.67-4.73h1.06l1.66 4.73h-.91l-.39-1.16h-1.78l-.39 1.16zm2.86-1.85l-.64-1.91-.64 1.91z" fill="#fff"/></g></svg>