<svg xmlns="http://www.w3.org/2000/svg" width="37" height="48"><defs><linearGradient id="a" x1="63.815%" x2="27.631%" y1="6.588%" y2="88.848%"><stop offset="0%" stop-color="#FF9640"/><stop offset="60%" stop-color="#FC4055"/><stop offset="100%" stop-color="#E31587"/></linearGradient><linearGradient id="b" x1="63.815%" x2="27.631%" y1="6.588%" y2="88.848%"><stop offset="0%" stop-color="#FFF36E" stop-opacity=".8"/><stop offset="9%" stop-color="#FFF36E" stop-opacity=".7"/><stop offset="75%" stop-color="#FFF36E" stop-opacity="0"/></linearGradient><linearGradient id="c" x1="76.065%" x2="33.956%" y1="89.279%" y2="3.042%"><stop offset="0%" stop-color="#B833E1"/><stop offset="37%" stop-color="#9059FF"/><stop offset="61%" stop-color="#5B6DF8"/><stop offset="100%" stop-color="#0090ED"/></linearGradient><linearGradient id="d" x1="82.759%" x2="37.815%" y1="101.654%" y2="42.559%"><stop offset="0%" stop-color="#722291" stop-opacity=".5"/><stop offset="50%" stop-color="#722291" stop-opacity="0"/></linearGradient></defs><g fill="none"><path fill="url(#a)" d="M22.417 25.66h.036a2.328 2.328 0 0 0-.036 0zm9.068-20.006A18.21 18.21 0 0 0 18.206 0C7.987 0 0 8.196 0 18.661c0 9.695 14.8 26.199 16.491 28.054.578.635 1.448.91 2.283.723a2.4 2.4 0 0 0 1.762-1.633 2.43 2.43 0 0 0-.52-2.356c-.048-.047-3.93-4.337-7.765-9.611-6.501-8.949-7.47-13.357-7.47-15.177 0-7.763 5.873-13.837 13.408-13.837a13.49 13.49 0 0 1 9.855 4.178 13.33 13.33 0 0 1 3.67 9.784c-.14 3.846-3.976 9.932-7.687 14.601l-1.328 1.393c-1.28 1.102-3.212.681-4.27-.634 1.01 1.25 2.127 2.595 3.395 4.041a2.967 2.967 0 0 0 4.499-.03c2.35-2.737 9.92-12.207 10.178-19.193a18.13 18.13 0 0 0-5.016-13.31zM20.48 22.898v.083c.017-.144.046-.287.088-.426a2.388 2.388 0 0 0-.088.343z"/><path fill="url(#b)" d="M22.417 25.66h.036a2.328 2.328 0 0 0-.036 0zm9.068-20.006A18.21 18.21 0 0 0 18.206 0C7.987 0 0 8.196 0 18.661c0 9.695 14.8 26.199 16.491 28.054.578.635 1.448.91 2.283.723a2.4 2.4 0 0 0 1.762-1.633 2.43 2.43 0 0 0-.52-2.356c-.048-.047-3.93-4.337-7.765-9.611-6.501-8.949-7.47-13.357-7.47-15.177 0-7.763 5.873-13.837 13.408-13.837a13.49 13.49 0 0 1 9.855 4.178 13.33 13.33 0 0 1 3.67 9.784c-.14 3.846-3.976 9.932-7.687 14.601l-1.328 1.393c-1.28 1.102-3.212.681-4.27-.634 1.01 1.25 2.127 2.595 3.395 4.041a2.967 2.967 0 0 0 4.499-.03c2.35-2.737 9.92-12.207 10.178-19.193a18.13 18.13 0 0 0-5.016-13.31zM20.48 22.898v.083c.017-.144.046-.287.088-.426a2.388 2.388 0 0 0-.088.343z"/><path fill="url(#c)" d="M22.705 34.78c-1.28 1.108-3.212.681-4.275-.64l-.183-.225c-6.806-8.51-8.04-12.646-8.263-14.134a8.185 8.185 0 0 1 2.009-6.554 8.28 8.28 0 0 1 6.46-2.738 8.065 8.065 0 0 1 5.873 2.81 8.942 8.942 0 0 1 2.103 6.678 9.053 9.053 0 0 1-1.65 4.687 2.375 2.375 0 0 1-4.158-.536 2.423 2.423 0 0 1 .404-2.427c.39-.66.614-1.407.652-2.174a4.06 4.06 0 0 0-.957-3.04A3.342 3.342 0 0 0 18.3 15.3a3.543 3.543 0 0 0-2.76 1.15 3.297 3.297 0 0 0-.816 2.678c.358 2.667 4.833 8.943 9.285 14.223l-1.304 1.428z"/><path fill="url(#d)" d="M15.364 30.116a68.158 68.158 0 0 0 2.883 3.799l.183.225c1.063 1.321 2.995 1.742 4.275.64l1.327-1.393a112.552 112.552 0 0 1-5.238-6.72l-3.43 3.45z"/></g></svg>