<svg data-name="Layer 1" xmlns="http://www.w3.org/2000/svg" xmlns:xlink="http://www.w3.org/1999/xlink" viewBox="0 0 279.54 45"><defs><linearGradient id="a" x1="41.78" y1="15.19" x2="34.5" y2="19.72" gradientTransform="matrix(1 0 0 -1 0 50)" gradientUnits="userSpaceOnUse"><stop offset="0" stop-color="#054096" stop-opacity=".5"/><stop offset=".05" stop-color="#0f3d9c" stop-opacity=".44"/><stop offset=".26" stop-color="#2f35b1" stop-opacity=".25"/><stop offset=".47" stop-color="#462fbf" stop-opacity=".11"/><stop offset=".67" stop-color="#542bc8" stop-opacity=".03"/><stop offset=".86" stop-color="#592acb" stop-opacity="0"/></linearGradient><linearGradient id="b" x1="28.3" y1="14.27" x2="23.84" y2="20.84" xlink:href="#a"/><linearGradient id="c" x1="18.83" y1="21.32" x2="31.7" y2="34.19" gradientTransform="matrix(1 0 0 -1 0 50)" gradientUnits="userSpaceOnUse"><stop offset="0" stop-color="#0090ed"/><stop offset=".68" stop-color="#9059ff"/><stop offset="1" stop-color="#b833e1"/></linearGradient><linearGradient id="d" x1="10.32" y1="15.74" x2="37.17" y2="42.59" gradientTransform="matrix(1 0 0 -1 0 50)" gradientUnits="userSpaceOnUse"><stop offset="0" stop-color="#e31587"/><stop offset=".44" stop-color="#ff3750"/><stop offset=".57" stop-color="#ff564b"/><stop offset=".74" stop-color="#ff7945"/><stop offset=".88" stop-color="#ff8e41"/><stop offset=".97" stop-color="#ff9640"/></linearGradient><linearGradient id="e" x1="10.32" y1="15.74" x2="37.17" y2="42.59" gradientTransform="matrix(1 0 0 -1 0 50)" gradientUnits="userSpaceOnUse"><stop offset=".37" stop-color="#fff36e" stop-opacity="0"/><stop offset=".43" stop-color="#fff36e" stop-opacity=".04"/><stop offset=".52" stop-color="#fff36e" stop-opacity=".14"/><stop offset=".64" stop-color="#fff36e" stop-opacity=".31"/><stop offset=".78" stop-color="#fff36e" stop-opacity=".54"/><stop offset=".92" stop-color="#fff36e" stop-opacity=".8"/></linearGradient><linearGradient id="f" x1="16.57" y1="20.9" x2="45.7" y2="8.39" gradientTransform="matrix(1 0 0 -1 0 50)" gradientUnits="userSpaceOnUse"><stop offset="0" stop-color="#54ffbd"/><stop offset="1" stop-color="#0df"/></linearGradient></defs><path d="M51.54 15.62h9.81v2.65h-7v3.59h7v2.64h-7v5.79h-2.81zm13.15-1a1.53 1.53 0 01.63.11 1.42 1.42 0 01.54.36 1.62 1.62 0 01.35.54 1.54 1.54 0 01.1.64 1.64 1.64 0 11-3.16-.61 1.63 1.63 0 01.89-.92 1.82 1.82 0 01.65-.14zm-1.39 4.84h2.77v10.82H63.3zm10.81 3a2.18 2.18 0 00-1.34-.49c-1.13 0-1.77.73-1.77 2.31v6h-2.76V19.44h2.64V21a2.53 2.53 0 011-1.26 2.57 2.57 0 011.57-.4 3.22 3.22 0 011.85.56zm1.15 2.47a5.56 5.56 0 011.58-4 5.7 5.7 0 011.83-1.24 5.6 5.6 0 012.18-.42 5.34 5.34 0 015.56 5.52v1.14h-8.44a2.85 2.85 0 003 2.27 2.94 2.94 0 001.57-.46 2.86 2.86 0 001.12-1.24l2.31 1.39a5.7 5.7 0 01-5.08 2.61 5.29 5.29 0 01-5.63-5.58zm2.75-1.23h5.71a2.73 2.73 0 00-2.89-2.14 2.69 2.69 0 00-1.79.57 2.75 2.75 0 00-1 1.57zm9.09-4.25h2v-.55c0-2.95 1.25-4.17 4-4.17h1v2.39h-.78c-1.29 0-1.57.44-1.57 1.78v.55h2.35v2.48h-2.39v8.36h-2.66v-8.36h-2zm7.44 5.41a5.42 5.42 0 01.41-2.18 5.57 5.57 0 011.22-1.85 5.67 5.67 0 011.86-1.22 5.58 5.58 0 012.18-.39 5.64 5.64 0 010 11.28 5.52 5.52 0 01-2.2-.38 5.45 5.45 0 01-3.47-5.26zm8.64 0a2.93 2.93 0 00-.83-2.17 3 3 0 00-1-.68 3.08 3.08 0 00-1.16-.23 3.13 3.13 0 00-1.17.23 3 3 0 00-1 .68 2.77 2.77 0 00-.64 1 2.92 2.92 0 00-.2 1.17 3 3 0 00.84 2.17 3 3 0 002.14.91 3.09 3.09 0 001.16-.24 3.16 3.16 0 001-.67 3.11 3.11 0 00.64-1 2.94 2.94 0 00.2-1.17zm6.43-.12l-3.92-5.3h3.26l2.31 3.33 2.37-3.33h3.2l-4 5.28 4.18 5.56h-3.24l-2.59-3.54-2.51 3.54h-3.24zm19.87-9.08h-5.57v14.61h1.7v-4.38h3.87a5.12 5.12 0 100-10.23zm-.1 8.69h-3.77v-7.17h3.75a3.59 3.59 0 110 7.17zm9.25-2.85v-2h-1.6v10.8h1.64v-5.95c0-2.38 1.05-3.42 2.88-3.42a2.36 2.36 0 011.34.34l.65-1.57a3.7 3.7 0 00-1.82-.4 3 3 0 00-3.09 2.2zm6.49 8.76h1.68V19.5h-1.68v10.8zm.83-15.43a1.23 1.23 0 00-.72.23 1.36 1.36 0 00-.48.58 1.4 1.4 0 00-.06.76 1.23 1.23 0 00.36.66 1.31 1.31 0 002-.21 1.3 1.3 0 00.22-.72 1.35 1.35 0 00-.38-.93 1.33 1.33 0 00-.43-.28 1.15 1.15 0 00-.51-.08zm7.59 13.44l-3.52-8.77h-1.76l4.4 10.81h1.64l4.6-10.8h-1.76l-3.6 8.76zm11.13-9a6.1 6.1 0 00-2.76.56 6 6 0 00-2.19 1.77l1.44.9a3.93 3.93 0 011.5-1.39 3.82 3.82 0 012-.43c2.13 0 3.21 1.1 3.21 2.74v.42h-3.47c-3.06 0-5 1.28-5 3.5 0 1.74 1.28 3.18 3.9 3.18a5.49 5.49 0 002.52-.52 5.63 5.63 0 002-1.6v1.9h1.72v-6.91c0-2.44-1.69-4.15-4.81-4.15zm3.18 7.37a4.79 4.79 0 01-4.23 2.44c-1.73 0-2.5-.8-2.5-1.86 0-1.34 1.08-2.06 3.34-2.06h3.39zm8.16 2.28c-.94 0-1.59-.54-1.59-1.92v-6h3.21v-1.5h-3.21v-3.46l-1.64 1v2.46h-2.13v1.46h2.13v6.08c0 2.38 1.1 3.43 3.1 3.43a3.58 3.58 0 002.25-.76l-.87-1.31a1.7 1.7 0 01-.57.39 1.79 1.79 0 01-.68.13zm8.13-9.65a5.69 5.69 0 00-2.2.4 5.41 5.41 0 00-1.87 1.22 5.57 5.57 0 00-1.24 1.86 5.64 5.64 0 00-.41 2.19 5.45 5.45 0 005.79 5.56 5.66 5.66 0 005.09-2.74l-1.42-.82a4 4 0 01-3.67 2.08 3.94 3.94 0 01-4.16-3.52h9.67v-.74a5.37 5.37 0 00-5.57-5.52zm-4.06 4.81a4 4 0 014.06-3.34 3.68 3.68 0 013.87 3.34zm26.58 3.62l-8.37-12h-1.87v14.57h1.67V18.14l8.45 12.13h1.74V15.66h-1.64zm9.41-8.43a5.72 5.72 0 00-2.2.4 5.65 5.65 0 00-1.87 1.22 5.72 5.72 0 00-1.24 1.86 5.64 5.64 0 00-.41 2.19 5.45 5.45 0 005.79 5.56 5.66 5.66 0 005.09-2.74l-1.42-.82a4.24 4.24 0 01-7.82-1.44h9.67v-.74a5.38 5.38 0 00-5.58-5.51zm-4 4.81a4 4 0 014-3.34 3.67 3.67 0 013.87 3.34zm15.69 4.84c-.93 0-1.58-.54-1.58-1.92v-6h3.2v-1.5h-3.2v-3.46l-1.65 1v2.46h-2.12v1.46h2.13v6.08c0 2.38 1.1 3.43 3.11 3.43a3.6 3.6 0 002.25-.76l-.87-1.31a1.85 1.85 0 01-.58.39 1.79 1.79 0 01-.68.13zm15.33-.92l-3.31-8.5h-1.54l-3.34 8.56-2.76-8.56h-1.75l3.59 10.81h1.62l3.37-8.57 3.37 8.56h1.5l3.79-10.8h-1.73l-2.85 8.5zm10.92-8.73a5.63 5.63 0 102.24 10.82 5.6 5.6 0 003.46-5.19 5.6 5.6 0 00-.42-2.18 5.59 5.59 0 00-3.09-3.05 5.67 5.67 0 00-2.19-.4zm0 9.69a3.92 3.92 0 01-1.55-.29 4.06 4.06 0 01-1.31-.89 4.31 4.31 0 01-.85-4.44 4.28 4.28 0 01.86-1.33 3.88 3.88 0 011.31-.88 4 4 0 014.42.88 4.28 4.28 0 01.86 1.33 4.49 4.49 0 010 3.12 3.94 3.94 0 01-3.74 2.5zm9.25-7.46v-2h-1.6v10.8h1.64v-5.95c0-2.38 1.05-3.42 2.88-3.42a2.36 2.36 0 011.34.34l.68-1.57a3.7 3.7 0 00-1.82-.4 3.09 3.09 0 00-1.95.55 3 3 0 00-1.17 1.65zm11.68 2.48l4.34-4.48h-2.09l-5.8 6.11V14.5h-1.64v15.77h1.64V27.5l2.33-2.44 3.82 5.21h2l-4.6-6.28z" fill="#fff"/><path d="M31.21 35.5H18.54l14.35-15c3.82 0 5.65 2.34 5.65 4.22V28a7.55 7.55 0 01-2.15 5.3 7.21 7.21 0 01-5.18 2.2z" fill="#008787"/><path d="M37.67 37H25l14.35-15c3.82 0 5.65 2.34 5.65 4.22v3.28a7.55 7.55 0 01-2.15 5.3 7.21 7.21 0 01-5.18 2.2z" transform="translate(-6.46 -1.5)" style="" fill="url(#a)" opacity=".9"/><path d="M25.62 28.05l-3.91 2.3L23 32l2.52 3.32a2.41 2.41 0 001.43.16 2.45 2.45 0 001.26-.69l1.42-1.49c-1.11-1.47-2.1-2.78-3-4z" transform="translate(-6.46 -1.5)" style="" fill="url(#b)" opacity=".9"/><path d="M28.15 34.76l1.42-1.49c-1.11-1.47-2.1-2.78-3-4-4.09-5.39-6.14-8.09-6.14-9.74A3.58 3.58 0 0124 16a3.6 3.6 0 013.59 3.6 6.16 6.16 0 01-1.24 2.87 2.25 2.25 0 00.65 3.08 2.22 2.22 0 001.68.33 2.27 2.27 0 001.44-.95 10.1 10.1 0 002-5.37 8.09 8.09 0 00-11.22-7.48 8.12 8.12 0 00-5 7.48C15.91 22.71 18 25.44 23 32l2.52 3.32a2.41 2.41 0 001.43.16 2.45 2.45 0 001.2-.72z" transform="translate(-6.46 -1.5)" fill="url(#c)"/><path d="M27.49 38a2.52 2.52 0 00.78.63 2.59 2.59 0 001 .27 2.55 2.55 0 001-.13 2.45 2.45 0 00.86-.52 48.36 48.36 0 003.54-4C37.21 31 41.54 24.64 41.54 19a17.54 17.54 0 00-35.08 0c0 7.54 7.85 17.34 13.58 24.5l1.68 2.11a2.32 2.32 0 00.68.57 2.12 2.12 0 00.85.27 2.24 2.24 0 00.89-.09 2.11 2.11 0 00.78-.42 2.31 2.31 0 00.26-3.21l-1.63-2.05C18.53 34.46 11 25 11 19a13 13 0 0126 0c0 3.05-2.22 7.69-5.95 12.4-.49.63-1 1.24-1.52 1.83l-1.42 1.49a2.45 2.45 0 01-1.26.69 2.41 2.41 0 01-1.43-.16z" transform="translate(-6.46 -1.5)" fill="url(#d)"/><path d="M27.49 38a2.52 2.52 0 00.78.63 2.59 2.59 0 001 .27 2.55 2.55 0 001-.13 2.45 2.45 0 00.86-.52 48.36 48.36 0 003.54-4C37.21 31 41.54 24.64 41.54 19a17.54 17.54 0 00-35.08 0c0 7.54 7.85 17.34 13.58 24.5l1.68 2.11a2.32 2.32 0 00.68.57 2.12 2.12 0 00.85.27 2.24 2.24 0 00.89-.09 2.11 2.11 0 00.78-.42 2.31 2.31 0 00.26-3.21l-1.63-2.05C18.53 34.46 11 25 11 19a13 13 0 0126 0c0 3.05-2.22 7.69-5.95 12.4-.49.63-1 1.24-1.52 1.83l-1.42 1.49a2.45 2.45 0 01-1.26.69 2.41 2.41 0 01-1.43-.16z" transform="translate(-6.46 -1.5)" fill="url(#e)"/><path d="M43.75 27.88H22.23a9.27 9.27 0 00-6.53 2.66 9.39 9.39 0 00-2 3A9.09 9.09 0 0013 37v4.45a1.19 1.19 0 00.37.87 1.25 1.25 0 00.88.36h21.52A9.32 9.32 0 0042.3 40a9 9 0 002.7-6.44v-6.91a1.19 1.19 0 01-.37.87 1.25 1.25 0 01-.88.36z" transform="translate(-6.46 -1.5)" fill="url(#f)"/><path d="M16.34 33.62a1.29 1.29 0 00.5-.51 1.32 1.32 0 00.17-.7c0-1.08-.73-1.68-2-1.68h-2.4v6h2.42c1.29 0 2.09-.59 2.09-1.78a1.42 1.42 0 00-.78-1.33zm-2.65-1.86h1.33c.59 0 .86.25.86.67s-.25.72-.85.72h-1.34zm1.33 3.92h-1.33v-1.49h1.29c.71 0 1 .27 1 .74s-.32.75-.94.75zm3.15 1h3.91v-1.1h-2.79v-1.32h2.79v-1.09h-2.79v-1.35h2.79v-1.09h-3.91zm9.2-6h-4.32v1.12h1.61v4.93h1.11V31.8h1.6zm3 0h-1.09l-2.2 6h1.15l.39-1.09h2.43l.38 1.09h1.16zm-1.4 3.85l.85-2.38.83 2.38z" fill="#20123a"/></svg>