<svg width="2030" height="262" xmlns="http://www.w3.org/2000/svg" xmlns:xlink="http://www.w3.org/1999/xlink"><defs><linearGradient x1="79.077%" y1="61.129%" x2="52.439%" y2="48.719%" id="b"><stop stop-color="#054096" stop-opacity=".5" offset="0%"/><stop stop-color="#173BA1" stop-opacity=".442" offset="9.995%"/><stop stop-color="#3434B3" stop-opacity=".329" offset="29.49%"/><stop stop-color="#482EC1" stop-opacity=".217" offset="48.88%"/><stop stop-color="#552BC8" stop-opacity=".107" offset="67.97%"/><stop stop-color="#592ACB" stop-opacity="0" offset="86.4%"/></linearGradient><linearGradient x1="-.075%" y1="50.017%" x2="99.986%" y2="50.017%" id="c"><stop stop-color="#9059FF" offset="0%"/><stop stop-color="#F770FF" offset="100%"/></linearGradient><linearGradient x1="10.951%" y1="41.295%" x2="102.369%" y2="60.901%" id="d"><stop stop-color="#54FFBD" offset=".103%"/><stop stop-color="#0DF" offset="100%"/></linearGradient><path d="M536.076 146.459V114.67H563.8c23.08 0 38.9-16.257 38.9-37.16 0-20.901-15.676-37.013-38.9-37.013h-39.917v105.96h12.193zm26.998-42.965h-26.998V51.529h26.853c17.128 0 27.579 11.177 27.579 25.983 0 14.66-10.306 25.982-27.434 25.982zm70.254 42.965v-42.965c0-17.273 7.548-24.821 20.611-24.821 4.21 0 7.403 1.016 9.58 2.467l4.935-11.321c-3.048-1.887-7.693-2.903-13.063-2.903-11.177 0-19.015 5.515-22.354 15.966V68.077H621.57v78.382h11.758zm55.738-93.043c5.516 0 9.435-4.064 9.435-9.434 0-5.371-3.92-9.435-9.435-9.435-5.225 0-9.29 4.064-9.29 9.435 0 5.37 3.92 9.434 9.29 9.434zm6.096 93.043V68.077h-12.047v78.382h12.047zm57.335 0l32.95-78.382h-12.628l-25.692 63.867-25.257-63.867h-12.628l31.498 78.382h11.757zm68.222 1.596c13.499 0 25.547-5.806 32.514-15.386v13.79h11.612V96.527c0-17.709-12.048-30.047-34.401-30.047-16.257 0-27.579 6.677-35.417 16.838l10.306 6.532c5.37-8.274 13.209-13.21 24.966-13.21 15.24 0 22.934 7.984 22.934 19.887v3.048h-24.821c-21.918 0-35.562 9.29-35.562 25.401 0 12.629 9.144 23.08 27.869 23.08zm2.177-10.45c-12.338 0-17.854-5.807-17.854-13.5 0-9.725 7.693-14.95 23.95-14.95h24.24v10.741c-6.24 11.612-18.579 17.709-30.336 17.709zm91.446 10.015c6.532 0 11.612-2.032 16.112-5.516l-6.242-9.435c-2.613 2.468-5.516 3.774-9 3.774-6.676 0-11.321-3.919-11.321-13.934V78.673h22.934V68.077H903.89V43.256l-11.757 7.548v17.273h-15.241v10.596h15.24v44.126c0 17.273 7.839 24.821 22.209 24.821zm63.14.435c17.129 0 28.45-7.402 36.434-19.885l-10.16-5.952c-5.371 9.58-13.79 15.096-26.273 15.096-16.547 0-28.014-10.596-29.756-25.547h69.237v-5.37c0-23.224-16.983-39.917-39.917-39.917-23.514 0-40.932 17.999-40.932 41.078 0 22.934 16.257 40.497 41.368 40.497zm27.29-46.738h-56.755c2.613-13.935 14.08-24.24 29.03-24.24 15.241 0 25.837 9.434 27.724 24.24zm79.397 45.142V58.497l60.674 87.962h12.483V40.498h-11.757v87.091l-59.948-87.091h-13.354v105.96h11.902zm132.814 1.596c17.128 0 28.45-7.402 36.434-19.885l-10.161-5.952c-5.37 9.58-13.79 15.096-26.273 15.096-16.547 0-28.014-10.596-29.756-25.547h69.238v-5.37c0-23.224-16.983-39.917-39.917-39.917-23.515 0-40.933 17.999-40.933 41.078 0 22.934 16.257 40.497 41.368 40.497zm27.289-46.738h-56.754c2.612-13.935 14.08-24.24 29.03-24.24 15.241 0 25.837 9.434 27.724 24.24zm58.351 46.303c6.532 0 11.612-2.032 16.112-5.516l-6.242-9.435c-2.612 2.468-5.515 3.774-8.999 3.774-6.677 0-11.322-3.919-11.322-13.934V78.673h22.934V68.077h-22.934V43.256l-11.757 7.548v17.273h-15.241v10.596h15.24v44.126c0 17.273 7.84 24.821 22.21 24.821zm60.964-1.161l24.095-62.125 24.095 62.125h10.742l27.143-78.382h-12.338l-20.466 61.69-23.37-61.69h-11.031l-23.95 62.125-19.741-62.125h-12.483l25.692 78.382h11.612zm135.136 1.596c23.08 0 40.788-18.144 40.788-40.787 0-22.934-17.854-40.788-40.788-40.788-22.789 0-40.642 17.854-40.642 40.788 0 23.079 17.563 40.787 40.642 40.787zm0-11.321c-16.257 0-28.595-12.629-28.595-29.466 0-16.693 12.338-29.611 28.595-29.611 16.257 0 28.74 12.918 28.74 29.61 0 16.693-12.338 29.467-28.74 29.467zm70.399 9.725v-42.965c0-17.273 7.548-24.821 20.612-24.821 4.209 0 7.402 1.016 9.58 2.467l4.935-11.321c-3.048-1.887-7.693-2.903-13.064-2.903-11.177 0-19.015 5.515-22.353 15.966V68.077h-11.467v78.382h11.757zm61.544 0v-20.467l16.693-17.708 27.288 38.175h14.37l-32.949-45.578 31.062-32.804h-14.95l-41.514 44.271V32.08h-11.757v114.38h11.757z" id="a"/></defs><g fill-rule="nonzero" fill="none"><path d="M310.4 78.5H381v19.1h-50.4v25.9H381v19h-50.4v41.7h-20.3V78.5h.1zm94.7-7.4c7 0 11.7 5.1 11.7 11.9 0 6.8-4.6 11.9-11.9 11.9-7 0-11.7-4.9-11.7-11.6 0-7.3 5.4-12.2 11.9-12.2zm-10 34.9h20v78.2h-20V106zm77.9 21.7c-2.5-2-6.2-3.5-9.7-3.5-8.1 0-12.7 5.2-12.7 16.6v43.3h-19.8V106h19v11.3c4.1-8.8 10.3-12 18.7-12 4.6 0 9.7 1.4 13.3 4.1l-8.8 18.3zm8.3 17.8c0-22.4 16.7-41.1 40.3-41.1 23.5 0 40.1 16.6 40.1 39.8v8.3h-60.8c2.2 9.8 9.9 16.4 21.6 16.4 9.1 0 15.4-4.3 19.4-11.6l16.7 10c-8.3 12.2-20 18.5-36.6 18.5-25.5-.1-40.7-17-40.7-40.3zm19.8-8.8h41.1c-2.2-10-10.3-15.5-20.9-15.5-9.4 0-17.4 5.3-20.2 15.5zm65.5-30.7h14.1v-3.9c0-21.3 9-30.1 28.7-30.1h7v17.2h-5.6c-9.3 0-11.3 3.2-11.3 12.9v3.9h16.9v18h-16.5v60.2h-19.1V124h-14.1v-18h-.1zm53.5 39.1c0-22.4 17.1-40.7 40.9-40.7 22.6 0 40.9 18.1 40.9 40.7s-18.3 40.7-40.9 40.7c-24.4-.1-40.9-17.9-40.9-40.7zm62.3 0c0-12.4-9.3-22.1-21.4-22.1-12.3 0-21.4 9.7-21.4 22.1 0 12.4 9.1 22.1 21.4 22.1 12.1 0 21.4-9.7 21.4-22.1zm46.3-.9L700.5 106H724l16.7 24 17.1-24h23L752 144l30.1 40.1h-23.3l-18.7-25.5-18.1 25.5h-23.3l30-39.9z" fill="#FFF"/><g transform="translate(310 39)"><use fill="#000" xlink:href="#a"/><use fill="#FFF" xlink:href="#a"/></g><path d="M226.4 168.3H119.7c-3.1 0-5.7 2.5-5.7 5.7v17c0 25.1 20.4 45.5 45.5 45.5h59c18.9 0 34.1-15.3 34.1-34.1v-14.9c.1-8.6-8.4-19.2-26.2-19.2z" fill="#008787"/><path d="M112.4.3H5.7C2.6.3 0 2.8 0 6v17c0 25.1 20.4 45.5 45.5 45.5h59c18.9 0 34.1-15.3 34.1-34.1V19.5c.1-8.6-8.4-19.2-26.2-19.2z" opacity=".9" fill="url(#b)" transform="translate(114 168)"/><path d="M219 55.1L125.9 2.9c-6.7-3.7-14.8-3.7-21.4 0L11.4 55.1C4.5 59 .2 66.3.2 74.2v104.4c0 7.9 4.3 15.2 11.2 19.1l93.1 52.2c3.3 1.9 7 2.8 10.7 2.8 3.7 0 7.4-.9 10.7-2.8l93.1-52.2c6.9-3.9 11.2-11.2 11.2-19.1V74.2c0-7.9-4.3-15.2-11.2-19.1z" fill="url(#c)"/><path d="M187.2 80.3l-67.8-38.7c-2.6-1.5-5.9-1.5-8.5 0L43 80.3c-2.7 1.5-4.3 4.4-4.3 7.4V165c0 3.1 1.6 5.9 4.3 7.4l67.8 38.7c1.3.7 2.8 1.1 4.2 1.1 1.4 0 2.9-.4 4.2-1.1l67.8-38.7c2.7-1.5 4.3-4.4 4.3-7.4V87.7c.2-3-1.4-5.8-4.1-7.4zm-12.8 69.8l-50.7-28.7V63.8l50.7 28.9v57.4zm-59.3 43.8l-59.3-33.8V92.7l50.7-28.9v62.3c0 3.6 2.2 6.6 5.3 7.9.5.6 1.2 1.1 1.9 1.5l52.2 29.5-50.8 28.9z" fill="#20133A"/><g><path d="M140 6.1H42c-23.2 0-42 18.8-42 42v20.6c0 3.1 2.5 5.7 5.7 5.7h98.1c23.2 0 42-18.8 42-42V.5c-.1 3.1-2.6 5.6-5.8 5.6z" fill="url(#d)" transform="translate(107 187)"/><g fill="#20123A"><path d="M150.8 226.9c2.1-1.2 3.2-3.1 3.2-5.7 0-5.1-3.5-7.9-9.8-7.9h-11.7v28.2h11.8c6.3 0 10.1-2.8 10.1-8.4.1-2.9-1.2-5-3.6-6.2zm-12.8-8.8h6.4c2.9 0 4.2 1.2 4.2 3.2 0 1.9-1.2 3.4-4.1 3.4H138v-6.6zm6.4 18.5H138v-7h6.2c3.4 0 4.8 1.3 4.8 3.5 0 2.1-1.6 3.5-4.6 3.5zM159.7 241.5h19v-5.2h-13.5v-6.4h13.5v-5.1h-13.5v-6.4h13.5v-5.1h-19zM204.4 213.3h-21v5h7.8v23.2h5.4v-23.2h7.8zM219 213.3h-5.4L203 241.5h5.6l1.9-5.1h11.8l1.9 5.1h5.6L219 213.3zm-6.8 18.1l4.1-11.2 4.1 11.2h-8.2z"/></g></g></g></svg>