<svg version="1.1" id="Layer_1" xmlns="http://www.w3.org/2000/svg" x="0" y="0" viewBox="0 0 250.9 14.5" xml:space="preserve"><style>.st2{enable-background:new}</style><path class="st0" fill="#fff" d="M5 1.1h8.6v2.4h-6v3.1h6V9h-6v5.3H5V1.1zm11.7-1c.9 0 1.6.6 1.6 1.5v.1c0 .9-.7 1.6-1.6 1.6-.9 0-1.6-.7-1.6-1.6 0-.9.6-1.6 1.5-1.6h.1zm-1.2 4.4H18v9.8h-2.6l.1-9.8zm4.5 0h2.5V6c.4-1.1 1.5-1.8 2.7-1.7.6 0 1.1.1 1.7.4L26 7.2c-.4-.2-.8-.4-1.3-.4-1.3 0-2.1.7-2.1 2.3v5.1H20V4.5zm7 5c0-2.8 2.2-5.1 5-5.1h.1c2.7-.1 5 2 5.1 4.7v1.3h-7.8c.3 1.3 1.5 2.2 2.8 2.1 1 0 1.9-.5 2.4-1.3l2.1 1.2c-1 1.5-2.7 2.4-4.5 2.3-2.8.1-5.1-2-5.2-4.8v-.4zm2.5-1.2h5.2c-.3-1.2-1.4-2-2.6-1.9-1.2 0-2.2.8-2.6 1.9zM38 4.5h1.6v-.3c0-3.2 1-4.2 4.2-4.2h.7v2.3h-.4c-1.8 0-1.9.2-1.9 1.8v.5h2.4v2.3h-2.4v7.5h-2.5V6.7H38V4.5zm7 4.9c0-2.9 2.2-5.2 5.1-5.3 2.9 0 5.2 2.2 5.3 5.1 0 2.9-2.2 5.2-5.1 5.3h-.1c-2.8.1-5.1-2.2-5.2-5v-.1zm7.9 0c0-1.5-1.3-2.7-2.7-2.6s-2.7 1.3-2.6 2.7c0 1.5 1.2 2.6 2.7 2.6 1.4.1 2.7-1.1 2.6-2.7.1.1.1 0 0 0zm6.3-.1l-3.5-4.8h3l2.1 2.9 2.1-2.9h2.9l-3.5 4.8 3.8 5h-3l-2.3-3-2.2 3.1h-3l3.6-5.1zm12.9-8.2h5c2.6-.2 4.8 1.8 5 4.3.2 2.6-1.8 4.8-4.3 5h-4.1v4h-1.5l-.1-13.3zm1.5 1.3V9H77c1.8 0 3.3-1.5 3.3-3.3 0-1.8-1.5-3.3-3.3-3.3h-3.4zm10.7 2.1h1.4v1.9c.3-1.2 1.5-2.1 2.8-2 .6 0 1.1.1 1.6.4l-.6 1.4c-.4-.2-.8-.3-1.2-.3-1.6 0-2.6 1-2.6 3.1v5.4h-1.5l.1-9.9zM92.8.3c.7 0 1.2.5 1.2 1.2s-.5 1.2-1.2 1.2-1.2-.5-1.2-1.2c0-.6.5-1.2 1.2-1.2-.1 0 0 0 0 0zM92 4.5h1.5v9.8H92V4.5zm3.3 0h1.6l3.2 8 3.2-8h1.6l-4.1 9.8h-1.5l-4-9.8zm10.5 7.1c0-2 1.7-3.2 4.5-3.2h3.1v-.3c0-1.5-1-2.5-2.9-2.5-1.3-.1-2.5.6-3.1 1.7l-1.3-.8c1-1.4 2.7-2.2 4.4-2.1 2.8 0 4.3 1.5 4.3 3.8v6.2h-1.5v-1.7c-1 1.3-2.5 2-4.1 1.9-2.2-.1-3.4-1.4-3.4-3zm7.6-.6V9.7h-3c-2 0-3 .7-3 1.9 0 1 .7 1.7 2.2 1.7 1.6-.1 3-.9 3.8-2.3zm2.9-6.5h1.9V2.3l1.5-1v3.1h2.9v1.3h-2.9v5.5c0 1.3.6 1.8 1.4 1.8.4 0 .8-.2 1.1-.5l.8 1.2c-.6.5-1.3.7-2 .7-1.8 0-2.8-1-2.8-3.1V5.8h-1.9V4.5zm7.5 5c-.1-2.8 2.1-5.1 4.8-5.2h.3c2.7-.1 4.9 2 5 4.7v1h-8.7c.2 1.9 1.8 3.3 3.7 3.2 1.4.1 2.7-.7 3.3-1.9l1.3.8c-.9 1.6-2.7 2.6-4.6 2.5-2.7.1-5-1.9-5.2-4.7 0-.2 0-.3.1-.4zm1.4-.8h7.1c-.2-1.8-1.7-3.1-3.5-3-1.7 0-3.2 1.2-3.6 3zm15.6-7.6h1.7L150 12V1.1h1.5v13.2h-1.6l-7.6-11v11h-1.5V1.1zm13 8.4c-.1-2.8 2.1-5.1 4.8-5.1h.3c2.7-.1 4.9 2 5 4.7v.9h-8.7c.2 1.9 1.8 3.3 3.7 3.2 1.4.1 2.7-.7 3.3-1.9l1.3.8c-.9 1.6-2.7 2.6-4.6 2.5-2.7.1-5-1.9-5.2-4.7.1-.2.1-.3.1-.4zm1.5-.8h7.1c-.2-1.8-1.7-3.1-3.5-3-1.8 0-3.3 1.2-3.6 3zm9.7-4.2h1.9V2.3l1.5-1v3.1h2.9v1.3h-2.9v5.5c0 1.3.6 1.8 1.4 1.8.4 0 .8-.2 1.1-.5l.8 1.2c-.6.5-1.3.7-2 .7-1.8 0-2.8-1-2.8-3.1V5.8H165V4.5zm7.7 0h1.6l2.5 7.8 3-7.8h1.4l2.9 7.7 2.6-7.7h1.5l-3.4 9.8h-1.4l-3-7.8-3 7.8h-1.5l-3.2-9.8zm16.5 4.9c0-2.8 2.3-5.1 5.1-5.1s5.1 2.3 5.1 5.1-2.3 5.1-5.1 5.1c-2.8.1-5-2.1-5.1-4.9v-.2zm8.7 0c.1-2-1.4-3.7-3.4-3.8-2-.1-3.7 1.4-3.8 3.4v.4c-.1 2 1.4 3.7 3.4 3.8 2 .1 3.7-1.4 3.8-3.4v-.4zm3.7-4.9h1.4v1.9c.3-1.2 1.5-2.1 2.8-2 .6 0 1.1.1 1.6.4l-.6 1.4c-.4-.2-.8-.3-1.2-.3-1.6 0-2.6 1-2.6 3.1v5.4h-1.5l.1-9.9zm11.3 5.1l-2.1 2.2v2.5h-1.5V0h1.5v10.1l5.2-5.5h1.9l-3.9 4 4.1 5.7h-1.8l-3.4-4.7z"/><path fill="#2AC3A2" d="M227.1 1.9h17.7c1.2 0 2.1.9 2.1 2.1v7.3c0 1.2-.9 2.1-2.1 2.1h-17.7c-1.2 0-2.1-.9-2.1-2.1V4c0-1.2.9-2.1 2.1-2.1z" fill-rule="evenodd" clip-rule="evenodd"/><g class="st2"><path class="st0" fill="#fff" d="M228.1 5.3h1.8c1 0 1.5.5 1.5 1.2 0 .6-.4.9-.8 1 .5 0 1 .4 1 1.2 0 .7-.5 1.3-1.6 1.3h-1.9V5.3zm1.7 2c.4 0 .8-.3.8-.7 0-.4-.3-.6-.8-.6h-.9v1.3h.9zm0 2c.6 0 .9-.3.9-.6 0-.4-.3-.8-.9-.8h-1v1.4h1zm2.5-4h3.1V6h-2.2v1.3h2.1V8h-2.1v1.3h2.3v.7h-3.1V5.3z"/></g><g class="st2"><path class="st0" fill="#fff" d="M236.2 5.3h3.8V6h-1.5v4h-.9V6h-1.5v-.7z"/></g><g class="st2"><path class="st0" fill="#fff" d="M240 10l1.7-4.8h1.1l1.7 4.8h-.9l-.4-1.2h-1.8L241 10h-1zm2.8-1.8l-.6-1.9-.6 1.9h1.2z"/></g></svg>