<svg width="16" height="16" xmlns="http://www.w3.org/2000/svg"><g fill="none" fill-rule="evenodd"><g fill-rule="nonzero"><path d="M14.27 3.483L8.198.176a1.473 1.473 0 00-1.396 0L.73 3.483C.28 3.73 0 4.192 0 4.693v6.613c0 .5.28.963.73 1.21l6.072 3.307c.215.12.457.177.698.177.241 0 .483-.057.698-.177l6.072-3.307c.45-.247.73-.71.73-1.21V4.692c0-.5-.28-.969-.73-1.21z" fill="#D4D4D4"/><path d="M12.703 4.783L7.817 2.079a.636.636 0 00-.613 0L2.31 4.783A.59.59 0 002 5.3v5.402c0 .216.115.412.31.517l4.887 2.704a.67.67 0 00.302.077.67.67 0 00.303-.077l4.887-2.704a.59.59 0 00.31-.517V5.3a.55.55 0 00-.296-.517z" fill="#FFF" opacity=".6"/><path d="M12.703 4.783L7.817 2.079a.636.636 0 00-.613 0L2.31 4.783A.59.59 0 002 5.3v5.402c0 .216.115.412.31.517l4.887 2.704a.67.67 0 00.302.077.67.67 0 00.303-.077l4.887-2.704a.59.59 0 00.31-.517V5.3a.55.55 0 00-.296-.517zM11.5 9l-3-1.5V4l3 1.5V9zm-4 3.5l-4-2v-5L7 3.609V8c.043.402.284.5 1 .858l3.5 1.642-4 2z" fill="#20133A"/></g><circle stroke="#C1C1C1" fill="#D8D8D8" cx="11" cy="11" r="4.5"/><path d="M13.625 10.625h-.788a1.863 1.863 0 00-.274-.657l.559-.56a.375.375 0 00-.53-.53l-.56.56a1.863 1.863 0 00-.657-.276v-.787a.375.375 0 10-.75 0v.788a1.863 1.863 0 00-.657.274l-.56-.559a.375.375 0 00-.53.53l.56.56c-.134.199-.227.422-.276.657h-.787a.375.375 0 000 .75h.787c.049.236.143.46.277.661-.005.005-.012.006-.017.011l-.544.544a.375.375 0 10.53.53l.544-.543c.005-.005.007-.012.011-.017.201.134.426.228.662.276v.788a.375.375 0 00.75 0v-.788c.235-.048.458-.141.657-.274l.56.559a.375.375 0 00.53-.53l-.56-.56c.134-.199.227-.422.275-.657h.788a.375.375 0 000-.75zM9.875 11a1.125 1.125 0 112.25 0 1.125 1.125 0 01-2.25 0z" fill="#20133A" fill-rule="nonzero"/></g></svg>