<svg xmlns="http://www.w3.org/2000/svg" width="12" height="12" viewBox="0 0 12 12">
  <path d="M7.5312,5.6 L11.7656,1.3656 C12.0687778,1.05169689 12.0644419,0.552732178 11.7558549,0.24414514 C11.4472678,-0.0644418991 10.9483031,-0.0687777676 10.6344,0.2344 L6.4,4.4688 L2.1656,0.2344 C1.85169689,-0.0687777676 1.35273218,-0.0644418991 1.04414514,0.24414514 C0.735558101,0.552732178 0.731222232,1.05169689 1.0344,1.3656 L5.2688,5.6 L1.0344,9.8344 C0.826434732,10.0352596 0.743029922,10.3327023 0.816242275,10.6124059 C0.889454627,10.8921094 1.1078906,11.1105454 1.38759414,11.1837577 C1.66729769,11.2569701 1.96474042,11.1735653 2.1656,10.9656 L6.4,6.7312 L10.6344,10.9656 C10.9483031,11.2687778 11.4472678,11.2644419 11.7558549,10.9558549 C12.0644419,10.6472678 12.0687778,10.1483031 11.7656,9.8344 L7.5312,5.6 Z"/>
</svg>
