<svg xmlns="http://www.w3.org/2000/svg" width="320" height="201"><g fill="none" fill-rule="evenodd"><circle cx="41" cy="41" r="41" fill="#FFF" fill-opacity=".7" transform="translate(119 59)"/><circle cx="160" cy="100" r="41" fill="#FFF" fill-opacity=".7"/><path fill="#20123A" d="M160 128c-15.464 0-28-12.536-28-28s12.536-28 28-28 28 12.536 28 28c-.017 15.457-12.543 27.983-28 28zm15.863-21.814c-4.147-4.787-9.89 1.654-15.864 1.654-5.97 0-11.717-6.44-15.864-1.654-1.176 1.356-1.27 3.332-.263 4.814 3.517 5.174 9.397 8.6 16.127 8.6 6.73 0 12.61-3.426 16.127-8.6a3.947 3.947 0 00-.263-4.814zM160 104.2c6.573 0 11.9-5.327 11.9-11.9s-5.327-11.9-11.9-11.9-11.9 5.327-11.9 11.9 5.327 11.9 11.9 11.9z"/></g></svg>