<svg xmlns="http://www.w3.org/2000/svg" width="320" height="201" viewBox="0 0 320 201">
  <g fill="none" fill-rule="evenodd">
    <circle cx="41" cy="41" r="41" fill="#FFF" fill-opacity=".7" transform="translate(119 59)"/>
    <circle cx="160" cy="100" r="41" fill="#FFF" fill-opacity=".7"/>
    <path fill="#20123A" d="M28,56 C12.536027,56 0,43.463973 0,28 C0,12.536027 12.536027,0 28,0 C43.463973,0 56,12.536027 56,28 C55.9830253,43.4569363 43.4569363,55.9830253 28,56 Z M43.8634501,34.18576 C39.7160901,29.39944 33.9732901,35.84 27.9992101,35.84 C22.0290501,35.84 16.2823301,29.39944 12.1349701,34.18576 C10.9589701,35.54208 10.8648901,37.51776 11.8723301,38.99952 C15.3885701,44.17392 21.2685701,47.6 27.9992101,47.6 C34.7298501,47.6 40.6098501,44.17392 44.1260901,38.99952 C45.1374501,37.51776 45.0394501,35.54208 43.8634501,34.18576 L43.8634501,34.18576 Z M28,32.2 C34.5727668,32.2 39.9,26.8727668 39.9,20.3 C39.9,13.7272333 34.5727668,8.4 28,8.4 C21.4272333,8.4 16.1,13.7272333 16.1,20.3 C16.1,26.8727668 21.4272333,32.2 28,32.2 Z" transform="translate(132 72)"/>
  </g>
</svg>
