<svg xmlns="http://www.w3.org/2000/svg" width="320" height="201"><g fill="none" fill-rule="evenodd"><circle cx="160" cy="100" r="41" fill="#FFF" fill-opacity=".7"/><path fill="#291D4F" fill-rule="nonzero" d="M146.056 109.24c-4.968 0-8.952-4.032-8.952-9s3.984-9 8.952-9c4.992 0 9 4.032 9 9s-3.984 9-9 9zm0-3.336c3.192 0 5.592-2.568 5.592-5.664 0-3.12-2.424-5.688-5.592-5.688-3.144 0-5.544 2.568-5.544 5.688 0 3.096 2.4 5.664 5.544 5.664zM157.672 109V91.48h11.28v3.216h-7.872v4.056h7.872v3.168h-7.872V109h-3.408zm14.112 0V91.48h11.28v3.216h-7.872v4.056h7.872v3.168h-7.872V109h-3.408z"/></g></svg>