<svg xmlns="http://www.w3.org/2000/svg" xmlns:xlink="http://www.w3.org/1999/xlink" width="320" height="201"><defs><filter id="a" width="832.9%" height="832.9%" x="-366.5%" y="-366.5%" filterUnits="objectBoundingBox"><feMorphology in="SourceAlpha" operator="dilate" radius=".5" result="shadowSpreadOuter1"/><feOffset in="shadowSpreadOuter1" result="shadowOffsetOuter1"/><feGaussianBlur in="shadowOffsetOuter1" result="shadowBlurOuter1" stdDeviation="100"/><feComposite in="shadowBlurOuter1" in2="SourceAlpha" operator="out" result="shadowBlurOuter1"/><feColorMatrix in="shadowBlurOuter1" values="0 0 0 0 0.0939144269 0 0 0 0 0.760290086 0 0 0 0 0.630283415 0 0 0 0.5 0"/></filter><circle id="b" cx="162" cy="101" r="41"/></defs><g fill="none" fill-rule="evenodd"><circle cx="162" cy="101" r="62" stroke="#29C1A1" stroke-opacity=".2"/><circle cx="162" cy="100" r="82" stroke="#29C1A1" stroke-opacity=".1"/><circle cx="162" cy="100" r="100" stroke="#29C1A1" stroke-opacity=".05"/><use fill="#000" filter="url(#a)" xlink:href="#b"/><use fill="#FFF" stroke="#29C1A1" xlink:href="#b"/><path fill="#291D4F" fill-rule="nonzero" d="M153.056 110.24c-4.968 0-8.952-4.032-8.952-9s3.984-9 8.952-9c4.992 0 9 4.032 9 9s-3.984 9-9 9zm0-3.336c3.192 0 5.592-2.568 5.592-5.664 0-3.12-2.424-5.688-5.592-5.688-3.144 0-5.544 2.568-5.544 5.688 0 3.096 2.4 5.664 5.544 5.664zM164.672 110V92.48h3.624l7.68 11.928V92.48h3.264V110h-3.36l-7.92-12.312V110h-3.288z"/></g></svg>