<svg xmlns="http://www.w3.org/2000/svg" height="82" width="82"><g transform="translate(-119 -59)" fill="none" fill-rule="evenodd"><circle transform="translate(119 59)" r="41" cy="41" cx="41" fill="#fff" fill-opacity=".7"/><circle r="41" cy="100" cx="160" fill="#fff" fill-opacity=".7"/><path d="M160 128c-15.464 0-28-12.536-28-28s12.536-28 28-28 28 12.536 28 28c-.017 15.457-12.543 27.983-28 28zm15.863-21.814c-4.147-4.787-9.89 1.654-15.864 1.654-5.97 0-11.717-6.44-15.864-1.654-1.176 1.356-1.27 3.332-.263 4.814 3.517 5.174 9.397 8.6 16.127 8.6 6.73 0 12.61-3.426 16.127-8.6a3.947 3.947 0 0 0-.263-4.814zM160 104.2c6.573 0 11.9-5.327 11.9-11.9s-5.327-11.9-11.9-11.9-11.9 5.327-11.9 11.9 5.327 11.9 11.9 11.9z" fill="#20123a"/></g></svg>