<svg xmlns="http://www.w3.org/2000/svg" width="320" height="201" viewBox="0 0 320 201">
  <g fill="none" fill-rule="evenodd">
    <circle cx="160" cy="100" r="41" fill="#FFF" fill-opacity=".7"/>
    <path fill="#291D4F" fill-rule="nonzero" d="M146.056,109.24 C141.088,109.24 137.104,105.208 137.104,100.24 C137.104,95.272 141.088,91.24 146.056,91.24 C151.048,91.24 155.056,95.272 155.056,100.24 C155.056,105.208 151.072,109.24 146.056,109.24 Z M146.056,105.904 C149.248,105.904 151.648,103.336 151.648,100.24 C151.648,97.12 149.224,94.552 146.056,94.552 C142.912,94.552 140.512,97.12 140.512,100.24 C140.512,103.336 142.912,105.904 146.056,105.904 Z M157.672,109 L157.672,91.48 L168.952,91.48 L168.952,94.696 L161.08,94.696 L161.08,98.752 L168.952,98.752 L168.952,101.92 L161.08,101.92 L161.08,109 L157.672,109 Z M171.784,109 L171.784,91.48 L183.064,91.48 L183.064,94.696 L175.192,94.696 L175.192,98.752 L183.064,98.752 L183.064,101.92 L175.192,101.92 L175.192,109 L171.784,109 Z"/>
  </g>
</svg>
