<svg xmlns="http://www.w3.org/2000/svg" xmlns:xlink="http://www.w3.org/1999/xlink" width="32" height="32"><defs><path id="a" d="M15 7h-2.1a4.967 4.967 0 00-.732-1.753l1.49-1.49a1 1 0 00-1.414-1.414l-1.49 1.49A4.968 4.968 0 009 3.1V1a1 1 0 00-2 0v2.1a4.968 4.968 0 00-1.753.732l-1.49-1.49a1 1 0 00-1.414 1.415l1.49 1.49A4.967 4.967 0 003.1 7H1a1 1 0 100 2h2.1c.13.63.38 1.229.737 1.763-.014.013-.032.017-.045.03l-1.45 1.45a1 1 0 101.414 1.414l1.45-1.45c.013-.013.018-.031.03-.045A4.968 4.968 0 007 12.9V15a1 1 0 002 0v-2.1a4.968 4.968 0 001.753-.732l1.49 1.49a1 1 0 001.414-1.414l-1.49-1.49A4.967 4.967 0 0012.9 9H15a1 1 0 000-2zM5 8a3 3 0 116 0 3 3 0 01-6 0z"/></defs><use fill="#0C0C0D" fill-opacity=".8" fill-rule="evenodd" transform="translate(8 8)" xlink:href="#a"/></svg>