<svg xmlns="http://www.w3.org/2000/svg" xmlns:xlink="http://www.w3.org/1999/xlink" width="16" height="16" viewBox="0 0 16 16">
  <defs>
    <path id="i-warning16-a" d="M14.6929417,12.0118641 L9.73994165,2.1058641 C9.40121551,1.42813595 8.70860308,1 7.95094165,1 C7.19328022,1 6.50066779,1.42813595 6.16194165,2.1058641 L1.20894165,12.0158641 C0.90104188,12.6354894 0.935277061,13.3702439 1.29945943,13.9585541 C1.6636418,14.5468644 2.30603325,14.9051512 2.99794165,14.9058643 L12.9029417,14.9058643 C13.5961777,14.9061872 14.2401412,14.5474994 14.6048048,13.957926 C14.9694684,13.3683526 15.0028183,12.6319873 14.6929417,12.0118641 L14.6929417,12.0118641 Z M6.95094165,4.9058641 C6.95094165,4.35357935 7.3986569,3.9058641 7.95094165,3.9058641 C8.5032264,3.9058641 8.95094165,4.35357935 8.95094165,4.9058641 L8.95094165,8.9058641 C8.95094165,9.45814885 8.5032264,9.9058641 7.95094165,9.9058641 C7.3986569,9.9058641 6.95094165,9.45814885 6.95094165,8.9058641 L6.95094165,4.9058641 Z M7.95094165,13.1558641 C7.26058571,13.1558641 6.70094165,12.59622 6.70094165,11.9058641 C6.70094165,11.2155082 7.26058571,10.6558641 7.95094165,10.6558641 C8.64129759,10.6558641 9.20094165,11.2155082 9.20094165,11.9058641 C9.20094165,12.59622 8.64129759,13.1558641 7.95094165,13.1558641 L7.95094165,13.1558641 Z"/>
  </defs>
  <use fill="#0C0C0D" fill-opacity=".8" fill-rule="evenodd" xlink:href="#i-warning16-a"/>
</svg>
