<svg width="96" height="96" xmlns="http://www.w3.org/2000/svg"><defs><linearGradient x1="79.029%" y1="61.296%" x2="52.391%" y2="48.696%" id="a"><stop stop-color="#054096" stop-opacity=".5" offset="0%"/><stop stop-color="#173BA1" stop-opacity=".442" offset="9.995%"/><stop stop-color="#3434B3" stop-opacity=".329" offset="29.49%"/><stop stop-color="#482EC1" stop-opacity=".217" offset="48.88%"/><stop stop-color="#552BC8" stop-opacity=".107" offset="67.97%"/><stop stop-color="#592ACB" stop-opacity="0" offset="86.4%"/></linearGradient><linearGradient x1="-.061%" y1="49.994%" x2="100%" y2="49.994%" id="b"><stop stop-color="#9059FF" offset="0%"/><stop stop-color="#F770FF" offset="100%"/></linearGradient><linearGradient x1="10.974%" y1="41.419%" x2="102.391%" y2="60.701%" id="c"><stop stop-color="#54FFBD" offset=".103%"/><stop stop-color="#0DF" offset="100%"/></linearGradient></defs><g fill-rule="nonzero" fill="none"><path d="M84.327 61.878H45.564a2.079 2.079 0 00-2.073 2.087v6.261c0 9.19 7.418 16.66 16.545 16.66h21.455c6.873 0 12.4-5.603 12.4-12.486v-5.456c.036-3.148-3.091-7.066-9.564-7.066z" fill="#008787"/><path d="M40.873 0H2.109A2.079 2.079 0 00.036 2.087v6.261c0 9.19 7.419 16.66 16.546 16.66h21.454c6.873 0 12.4-5.602 12.4-12.486V7.067C50.474 3.917 47.347 0 40.874 0z" opacity=".9" fill="url(#a)" transform="translate(43.455 61.878)"/><path d="M79.636 20.467L45.782 1.355C43.345 0 40.4 0 38 1.355L4.145 20.467a8.06 8.06 0 00-4.072 6.994v38.225a8.06 8.06 0 004.072 6.993L38 91.792a7.736 7.736 0 003.89 1.025c1.346 0 2.692-.33 3.892-1.025l33.854-19.113a8.06 8.06 0 004.073-6.993V27.46c0-2.893-1.564-5.602-4.073-6.994z" fill="url(#b)" transform="translate(2)"/><path d="M69.516 29.61L45.083 15.413a3.048 3.048 0 00-3.064 0L17.55 29.61c-.972.55-1.549 1.615-1.549 2.715v28.359c0 1.137.577 2.164 1.55 2.715l24.433 14.197c.469.257 1.01.404 1.514.404.505 0 1.045-.147 1.514-.404L69.444 63.4c.973-.55 1.55-1.614 1.55-2.715V32.325a2.918 2.918 0 00-1.478-2.715zm-4.612 25.608l-18.272-10.53v-21.13L64.904 34.16v21.058zM43.533 71.286l-21.37-12.4V34.16l18.27-10.603v22.856c0 1.32.794 2.421 1.91 2.898.18.22.433.404.685.55L61.84 60.684 43.533 71.286z" fill="#20133A"/><g><path d="M50.858 2.124H15.247C6.825 2.124 0 8.892 0 17.244v7.416a2.06 2.06 0 002.07 2.052h35.61c8.423 0 15.247-6.768 15.247-15.12V.108c0 1.08-.943 2.016-2.069 2.016z" fill="url(#c)" transform="translate(41 69)"/><g fill="#20123A"><path d="M56.936 83.256c.763-.432 1.162-1.116 1.162-2.052 0-1.836-1.27-2.844-3.558-2.844h-4.247v10.152h4.284c2.287 0 3.666-1.008 3.666-3.024 0-1.008-.472-1.8-1.307-2.232zm-4.683-3.132h2.324c1.052 0 1.524.432 1.524 1.152 0 .684-.435 1.224-1.488 1.224h-2.36v-2.376zm2.36 6.624h-2.36v-2.52h2.251c1.234 0 1.743.468 1.743 1.26s-.545 1.26-1.634 1.26zM60.167 88.548h6.861v-1.872h-4.9v-2.34h4.9V82.5h-4.9v-2.268h4.9V78.36h-6.86zM76.358 78.36h-7.624v1.8h2.868v8.388h1.96V80.16h2.796zM81.658 78.36h-1.96l-3.849 10.188h2.033l.69-1.836h4.283l.69 1.836h2.033l-3.92-10.188zm-2.433 6.552l1.489-4.032 1.488 4.032h-2.977z"/></g></g></g></svg>