<svg data-name="Layer 1" xmlns="http://www.w3.org/2000/svg" viewBox="0 0 214.35 17.29"><defs><linearGradient id="a" x1="-161.21" y1="397.52" x2="-161.34" y2="397.22" gradientTransform="matrix(36.52 0 0 -47.5 5895.34 18882.33)" gradientUnits="userSpaceOnUse"><stop offset="0" stop-color="#ff9640"/><stop offset=".6" stop-color="#fc4055"/><stop offset="1" stop-color="#e31587"/></linearGradient><linearGradient id="b" x1="-161.21" y1="397.52" x2="-161.34" y2="397.22" gradientTransform="matrix(36.52 0 0 -47.5 5895.34 18882.33)" gradientUnits="userSpaceOnUse"><stop offset="0" stop-color="#fff36e" stop-opacity=".8"/><stop offset=".09" stop-color="#fff36e" stop-opacity=".7"/><stop offset=".75" stop-color="#fff36e" stop-opacity="0"/></linearGradient><linearGradient id="c" x1="-156.08" y1="390.11" x2="-156.23" y2="390.43" gradientTransform="matrix(16.56 0 0 -24.93 2592.84 9738.28)" gradientUnits="userSpaceOnUse"><stop offset="0" stop-color="#b833e1"/><stop offset=".37" stop-color="#9059ff"/><stop offset=".61" stop-color="#5b6df8"/><stop offset="1" stop-color="#0090ed"/></linearGradient><linearGradient id="d" x1="-147.69" y1="363.01" x2="-147.85" y2="363.22" gradientTransform="matrix(8.67 0 0 -8.74 1288.13 3187.88)" gradientUnits="userSpaceOnUse"><stop offset="0" stop-color="#722291" stop-opacity=".5"/><stop offset=".5" stop-color="#722291" stop-opacity="0"/></linearGradient></defs><path d="M19.24 3.67h7V5.6h-4.89v2.5h4.89v1.94h-4.89v4.29h-2.11zm9.43-.81a1.21 1.21 0 011.29 1.21v.08a1.29 1.29 0 01-2.58 0 1.22 1.22 0 011.21-1.29zm-1 3.55h2v7.92h-2.03zm3.63 0h2v1.21a2.11 2.11 0 012.18-1.37 2.86 2.86 0 011.37.32l-.73 2a2.28 2.28 0 00-1.05-.33c-1 0-1.69.57-1.69 1.86v4.13h-2.1zm5.65 4a4.05 4.05 0 014-4.11h.08a4 4 0 014.21 3.82v1.05h-6.3a2.16 2.16 0 002.3 1.69 2.26 2.26 0 001.94-1l1.69 1a4.1 4.1 0 01-3.63 1.78 4 4 0 01-4.19-3.87zm2-1h4.29a2 2 0 00-2.1-1.53 2.25 2.25 0 00-2.12 1.59zm6.85-3.06h1.29v-.18c0-2.58.81-3.39 3.39-3.39h.56v1.86h-.32c-1.38 0-1.48.16-1.48 1.45v.4h2v1.84h-2v6h-2V8.18h-1.37zm5.72 3.98a4.19 4.19 0 114.27 4.12h-.08a4.13 4.13 0 01-4.19-4zm6.37 0a2.1 2.1 0 00-2.18-2.1 2.22 2.22 0 00-2.1 2.18 2.11 2.11 0 002.18 2.1 2 2 0 002.1-2.18c.08.11.08 0 0 0zm5.08 0l-2.82-3.92h2.42l1.67 2.34 1.69-2.34h2.34l-2.8 3.92 3.06 4h-2.42l-1.87-2.44-1.77 2.5h-2.4zm10.4-6.61h4a3.76 3.76 0 11.56 7.5h-3.27v3.22h-1.21zm1.21 1v5.32h2.75a2.66 2.66 0 000-5.32zm8.66 1.69h1.1v1.53a2.18 2.18 0 012.26-1.61 2.38 2.38 0 011.29.32l-.48 1.13a2.2 2.2 0 00-1-.24c-1.29 0-2.1.81-2.1 2.5v4.35h-1.18zm6.86-3.39a.94.94 0 011 1 1 1 0 01-1.94 0 1 1 0 011-1zm-.65 3.39h1.21v7.92h-1.24zm2.66 0h1.3l2.58 6.45 2.55-6.45h1.29l-3.31 7.92h-1.21zm8.47 5.73c0-1.62 1.37-2.58 3.63-2.58h2.5v-.23c0-1.21-.8-2-2.34-2a2.64 2.64 0 00-2.5 1.37l-1-.65a4.11 4.11 0 013.47-1.72c2.26 0 3.47 1.21 3.47 3.06v5h-1.21v-1.37a3.82 3.82 0 01-3.3 1.54c-1.78-.08-2.75-1.13-2.75-2.42zm6.13-.49V10.6h-2.47c-1.61 0-2.42.57-2.42 1.54 0 .8.57 1.37 1.78 1.37a3.69 3.69 0 003.08-1.86zm2.34-5.24h1.53V4.64l1.21-.81v2.5h2.34v1.05h-2.34v4.43c0 1 .49 1.46 1.13 1.46a1.3 1.3 0 00.89-.41l.65 1a2.5 2.5 0 01-1.62.56c-1.45 0-2.26-.8-2.26-2.5V7.46h-1.53zm6 4a4 4 0 013.87-4.19h.24a3.89 3.89 0 014 3.79v.81h-7a2.85 2.85 0 003 2.58 2.81 2.81 0 002.67-1.54l1 .65a4.29 4.29 0 01-7.9-1.77c.06-.14.06-.22.14-.3zm1.13-.64h5.73a2.69 2.69 0 00-2.83-2.42 3 3 0 00-2.84 2.45zm12.58-6.13h1.37l6.11 8.82V3.67h1.21v10.66h-1.29l-6.13-8.87v8.87h-1.21V3.67zm10.48 6.8a3.92 3.92 0 013.9-4.11h.24a3.89 3.89 0 014 3.79v.73h-7a2.86 2.86 0 003 2.58 2.78 2.78 0 002.66-1.54l1 .65a4.29 4.29 0 01-7.9-1.77.65.65 0 00.08-.33zm1.21-.64h5.79a2.68 2.68 0 00-2.82-2.42 2.87 2.87 0 00-2.94 2.42zm7.82-3.39h1.53V4.64l1.21-.81v2.5h2.34v1.05h-2.31v4.43c0 1 .48 1.46 1.13 1.46a1.32 1.32 0 00.89-.41l.64 1a2.47 2.47 0 01-1.61.56c-1.45 0-2.26-.8-2.26-2.5V7.46h-1.53zm6.21 0h1.29l2 6.29 2.47-6.29h1.12l2.34 6.21 2.1-6.21h1.21l-2.77 7.92h-1.1l-2.42-6.29-2.42 6.29h-1.21l-2.58-7.9zm13.34 3.92a4.11 4.11 0 114.11 4.12 4 4 0 01-4.11-4zm7 0a2.904 2.904 0 00-5.8-.32v.32a2.904 2.904 0 105.8.32zm3-3.95h1.13v1.56a2.18 2.18 0 012.29-1.61 2.36 2.36 0 011.29.32l-.48 1.13a2.14 2.14 0 00-1-.24c-1.29 0-2.09.81-2.09 2.5v4.35h-1.22zm9.11 4.11l-1.69 1.84v2h-1.21V2.78h1.21v8.15l4.19-4.44h1.53l-3.14 3.23 3.3 4.59h-1.45z" fill="#20123a"/><path d="M198.38 4.33h14.28a1.65 1.65 0 011.69 1.7v5.88a1.65 1.65 0 01-1.69 1.7h-14.28a1.66 1.66 0 01-1.69-1.7v-5.9a1.66 1.66 0 011.69-1.68z" fill="#2ac3a2" fill-rule="evenodd"/><path d="M199.24 7.06h1.45c.81 0 1.21.4 1.21 1a.79.79 0 01-.64.81c.4 0 .8.32.8 1s-.4 1-1.29 1h-1.53zm1.37 1.61a.63.63 0 00.65-.57c0-.32-.25-.48-.65-.48h-.72v1.05zm0 1.61c.48 0 .73-.24.73-.48a.66.66 0 00-.73-.65h-.81v1.18zm2-3.22h2.5v.56h-1.78v1.05h1.7v.56h-1.7v1h1.86v.57h-2.5V7.06zM205.72 7.06h3.07v.56h-1.21v3.23h-.73V7.62h-1.21v-.56zM208.79 10.85l1.37-3.88h.89l1.37 3.88h-.73l-.32-1h-1.45l-.33 1zm2.26-1.46l-.49-1.53-.48 1.53z" fill="#fff"/><path d="M7.92 10zm3.3-7.28A6.65 6.65 0 00-.24 7.47c0 3.52 5.39 9.53 6 10.21a.88.88 0 00.84.26.9.9 0 00.64-.6.88.88 0 00-.19-.85S5.62 14.91 4.22 13C1.86 9.73 1.5 8.13 1.5 7.47a4.91 4.91 0 119.81 0c-.06 1.4-1.45 3.62-2.8 5.32l-.49.5a1.09 1.09 0 01-1.55-.23c.37.46.77 1 1.24 1.47a1.08 1.08 0 001.52.11l.11-.12c.86-1 3.61-4.44 3.71-7a6.65 6.65 0 00-1.83-4.79zM7.22 9a.45.45 0 010-.16.31.31 0 000 .16z" transform="translate(.24 -.67)" fill="url(#a)"/><path d="M7.92 10zm3.3-7.28A6.65 6.65 0 00-.24 7.47c0 3.52 5.39 9.53 6 10.21a.88.88 0 00.84.26.9.9 0 00.64-.6.88.88 0 00-.19-.85S5.62 14.91 4.22 13C1.86 9.73 1.5 8.13 1.5 7.47a4.91 4.91 0 119.81 0c-.06 1.4-1.45 3.62-2.8 5.32l-.49.5a1.09 1.09 0 01-1.55-.23c.37.46.77 1 1.24 1.47a1.08 1.08 0 001.52.11l.11-.12c.86-1 3.61-4.44 3.71-7a6.65 6.65 0 00-1.83-4.79zM7.22 9a.45.45 0 010-.16.31.31 0 000 .16z" transform="translate(.24 -.67)" fill="url(#b)"/><path d="M8 13.33a1.1 1.1 0 01-1.56-.23L6.4 13c-2.47-3.1-2.92-4.6-3-5.15a3 3 0 01.73-2.38 3 3 0 014.49 0 3.26 3.26 0 01.76 2.43 3.27 3.27 0 01-.6 1.71.85.85 0 01-1.2.2.8.8 0 01-.31-.39.9.9 0 01.14-.89 1.59 1.59 0 00.24-.79 1.46 1.46 0 00-.35-1.07 1.24 1.24 0 00-.88-.43 1.31 1.31 0 00-1 .42 1.21 1.21 0 00-.3 1c.13 1 1.76 3.25 3.38 5.17l-.5.5z" transform="translate(.24 -.67)" fill="url(#c)"/><path d="M5.35 11.63c.34.48.69.94 1.05 1.39l.07.08a1.1 1.1 0 001.53.23l.48-.5c-.67-.8-1.3-1.61-1.91-2.45l-1.22 1.26z" transform="translate(.24 -.67)" fill="url(#d)"/></svg>