<svg id="ac06056a-cc2f-498b-98c5-e624a222686e" data-name="Layer 1" xmlns="http://www.w3.org/2000/svg" xmlns:xlink="http://www.w3.org/1999/xlink" viewBox="0 0 214.35 17.29"><defs><linearGradient id="a69ce098-a8c3-490a-ac37-85c488439632" x1="-161.21" y1="397.52" x2="-161.34" y2="397.22" gradientTransform="matrix(36.52, 0, 0, -47.5, 5895.34, 18882.33)" gradientUnits="userSpaceOnUse"><stop offset="0" stop-color="#ff9640"/><stop offset="0.6" stop-color="#fc4055"/><stop offset="1" stop-color="#e31587"/></linearGradient><linearGradient id="acc7dd2c-bdce-45b7-b895-af1275416470" x1="-161.21" y1="397.52" x2="-161.34" y2="397.22" gradientTransform="matrix(36.52, 0, 0, -47.5, 5895.34, 18882.33)" gradientUnits="userSpaceOnUse"><stop offset="0" stop-color="#fff36e" stop-opacity="0.8"/><stop offset="0.09" stop-color="#fff36e" stop-opacity="0.7"/><stop offset="0.75" stop-color="#fff36e" stop-opacity="0"/></linearGradient><linearGradient id="b10f0995-aa05-4315-912a-e3033f9fc26d" x1="-156.08" y1="390.11" x2="-156.23" y2="390.43" gradientTransform="matrix(16.56, 0, 0, -24.93, 2592.84, 9738.28)" gradientUnits="userSpaceOnUse"><stop offset="0" stop-color="#b833e1"/><stop offset="0.37" stop-color="#9059ff"/><stop offset="0.61" stop-color="#5b6df8"/><stop offset="1" stop-color="#0090ed"/></linearGradient><linearGradient id="acc3a175-bb54-4dd6-a40e-ac91b8fb2386" x1="-147.69" y1="363.01" x2="-147.85" y2="363.22" gradientTransform="matrix(8.67, 0, 0, -8.74, 1288.13, 3187.88)" gradientUnits="userSpaceOnUse"><stop offset="0" stop-color="#722291" stop-opacity="0.5"/><stop offset="0.5" stop-color="#722291" stop-opacity="0"/></linearGradient></defs><title>landscape-modal-logo</title><path d="M19,4.34H26V6.27H21.11v2.5H26v1.94H21.11V15H19Zm9.43-.81a1.21,1.21,0,0,1,1.29,1.21v.08a1.29,1.29,0,0,1-2.58,0,1.22,1.22,0,0,1,1.21-1.29Zm-1,3.55h2V15H27.4Zm3.63,0h2V8.29a2.11,2.11,0,0,1,2.18-1.37,2.86,2.86,0,0,1,1.37.32l-.73,2a2.28,2.28,0,0,0-1.05-.33c-1,0-1.69.57-1.69,1.86V14.9h-2.1Zm5.65,4a4.05,4.05,0,0,1,4-4.11h.08A4,4,0,0,1,45,10.79v1.05H38.7A2.16,2.16,0,0,0,41,13.53a2.26,2.26,0,0,0,1.94-1l1.69,1A4.1,4.1,0,0,1,41,15.31a4,4,0,0,1-4.19-3.87Zm2-1H43a2,2,0,0,0-2.1-1.53A2.25,2.25,0,0,0,38.78,10.14Zm6.85-3.06h1.29V6.84c0-2.58.81-3.39,3.39-3.39h.56V5.31h-.32C49.1,5.31,49,5.47,49,6.76v.4H51V9H49v6H47V8.85H45.63ZM51.28,11a4.19,4.19,0,1,1,4.27,4.12h-.08a4.13,4.13,0,0,1-4.19-4Zm6.37,0a2.1,2.1,0,0,0-2.18-2.1,2.22,2.22,0,0,0-2.1,2.18,2.11,2.11,0,0,0,2.18,2.1A2,2,0,0,0,57.65,11C57.73,11.11,57.73,11,57.65,11ZM62.73,11,59.91,7.08h2.42L64,9.42l1.69-2.34h2.34L65.23,11l3.06,4H65.87L64,12.56l-1.77,2.5H59.83Zm10.4-6.61h4a3.76,3.76,0,1,1,.56,7.5H74.42v3.22H73.21Zm1.21,1v5.32h2.75a2.66,2.66,0,0,0,0-5.32ZM83,7.08H84.1V8.61A2.18,2.18,0,0,1,86.36,7a2.38,2.38,0,0,1,1.29.32l-.48,1.13a2.2,2.2,0,0,0-1-.24c-1.29,0-2.1.81-2.1,2.5v4.35H82.89Zm6.86-3.39a.94.94,0,0,1,1,1,1,1,0,0,1-1.94,0,1,1,0,0,1,1-1Zm-.65,3.39h1.21V15H89.18Zm2.66,0h1.3l2.58,6.45L98.3,7.08h1.29L96.28,15H95.07Zm8.47,5.73c0-1.62,1.37-2.58,3.63-2.58h2.5V10c0-1.21-.8-2-2.34-2a2.64,2.64,0,0,0-2.5,1.37l-1-.65A4.11,4.11,0,0,1,104.1,7c2.26,0,3.47,1.21,3.47,3.06v5h-1.21V13.69a3.82,3.82,0,0,1-3.3,1.54C101.28,15.15,100.31,14.1,100.31,12.81Zm6.13-.49V11.27H104c-1.61,0-2.42.57-2.42,1.54,0,.8.57,1.37,1.78,1.37A3.69,3.69,0,0,0,106.44,12.32Zm2.34-5.24h1.53V5.31l1.21-.81V7h2.34V8.05h-2.34v4.43c0,1,.49,1.46,1.13,1.46a1.3,1.3,0,0,0,.89-.41l.65,1a2.5,2.5,0,0,1-1.62.56c-1.45,0-2.26-.8-2.26-2.5V8.13h-1.53Zm6,4a4,4,0,0,1,3.87-4.19h.24a3.89,3.89,0,0,1,4,3.79v.81h-7a2.85,2.85,0,0,0,3,2.58,2.81,2.81,0,0,0,2.67-1.54l1,.65a4.29,4.29,0,0,1-7.9-1.77C114.75,11.27,114.75,11.19,114.83,11.11Zm1.13-.64h5.73a2.69,2.69,0,0,0-2.83-2.42A3,3,0,0,0,116,10.47Zm12.58-6.13h1.37L136,13.13V4.34h1.21V15h-1.29l-6.13-8.87V15h-1.21V4.34ZM139,11.11A3.92,3.92,0,0,1,142.9,7h.24a3.89,3.89,0,0,1,4,3.79v.73h-7a2.86,2.86,0,0,0,3,2.58,2.78,2.78,0,0,0,2.66-1.54l1,.65a4.29,4.29,0,0,1-7.9-1.77.65.65,0,0,0,.08-.33Zm1.21-.64H146a2.68,2.68,0,0,0-2.82-2.42A2.87,2.87,0,0,0,140.24,10.47Zm7.82-3.39h1.53V5.31l1.21-.81V7h2.34V8.05H150.8v4.43c0,1,.48,1.46,1.13,1.46a1.32,1.32,0,0,0,.89-.41l.64,1a2.47,2.47,0,0,1-1.61.56c-1.45,0-2.26-.8-2.26-2.5V8.13h-1.53Zm6.21,0h1.29l2,6.29L160,7.08h1.12l2.34,6.21,2.1-6.21h1.21L164,15H162.9l-2.42-6.29L158.06,15h-1.21l-2.58-7.9ZM167.58,11a4.11,4.11,0,1,1,4.11,4.12,4,4,0,0,1-4.11-4Zm7,0a2.9,2.9,0,0,0-5.8-.32V11a2.9,2.9,0,1,0,5.8.32Zm3-3.95h1.13V8.61A2.18,2.18,0,0,1,181,7a2.36,2.36,0,0,1,1.29.32l-.48,1.13a2.14,2.14,0,0,0-1-.24c-1.29,0-2.09.81-2.09,2.5v4.35H177.5Zm9.11,4.11L185,13v2h-1.21V3.45H185V11.6l4.19-4.44h1.53l-3.14,3.23,3.3,4.59h-1.45Z" transform="translate(0.24 -0.67)" fill="#20123a"/><path d="M198.14,5h14.28a1.65,1.65,0,0,1,1.69,1.7v5.88a1.65,1.65,0,0,1-1.69,1.7H198.14a1.66,1.66,0,0,1-1.69-1.7V6.68A1.66,1.66,0,0,1,198.14,5Z" transform="translate(0.24 -0.67)" fill="#2ac3a2" fill-rule="evenodd"/><g style="isolation:isolate"><path d="M199,7.73h1.45c.81,0,1.21.4,1.21,1a.79.79,0,0,1-.64.81c.4,0,.8.32.8,1s-.4,1-1.29,1H199Zm1.37,1.61a.63.63,0,0,0,.65-.57c0-.32-.25-.48-.65-.48h-.72V9.34Zm0,1.61c.48,0,.73-.24.73-.48a.66.66,0,0,0-.73-.65h-.81V11Zm2-3.22h2.5v.56h-1.78V9.34h1.7V9.9h-1.7v1h1.86v.57h-2.5V7.73Z" transform="translate(0.24 -0.67)" fill="#fff"/></g><g style="isolation:isolate"><path d="M205.48,7.73h3.07v.56h-1.21v3.23h-.73V8.29H205.4V7.73Z" transform="translate(0.24 -0.67)" fill="#fff"/></g><g style="isolation:isolate"><path d="M208.55,11.52l1.37-3.88h.89l1.37,3.88h-.73l-.32-1h-1.45l-.33,1Zm2.26-1.46-.49-1.53-.48,1.53Z" transform="translate(0.24 -0.67)" fill="#fff"/></g><path d="M7.92,10h0Zm3.3-7.28A6.65,6.65,0,0,0-.24,7.47c0,3.52,5.39,9.53,6,10.21a.88.88,0,0,0,.84.26.9.9,0,0,0,.64-.6.88.88,0,0,0-.19-.85S5.62,14.91,4.22,13C1.86,9.73,1.5,8.13,1.5,7.47a4.91,4.91,0,1,1,9.81,0c-.06,1.4-1.45,3.62-2.8,5.32l-.49.5a1.09,1.09,0,0,1-1.55-.23c.37.46.77,1,1.24,1.47a1.08,1.08,0,0,0,1.52.11l.11-.12c.86-1,3.61-4.44,3.71-7A6.65,6.65,0,0,0,11.22,2.73ZM7.22,9V9a.45.45,0,0,1,0-.16A.31.31,0,0,0,7.22,9Z" transform="translate(0.24 -0.67)" fill="url(#a69ce098-a8c3-490a-ac37-85c488439632)"/><path d="M7.92,10h0Zm3.3-7.28A6.65,6.65,0,0,0-.24,7.47c0,3.52,5.39,9.53,6,10.21a.88.88,0,0,0,.84.26.9.9,0,0,0,.64-.6.88.88,0,0,0-.19-.85S5.62,14.91,4.22,13C1.86,9.73,1.5,8.13,1.5,7.47a4.91,4.91,0,1,1,9.81,0c-.06,1.4-1.45,3.62-2.8,5.32l-.49.5a1.09,1.09,0,0,1-1.55-.23c.37.46.77,1,1.24,1.47a1.08,1.08,0,0,0,1.52.11l.11-.12c.86-1,3.61-4.44,3.71-7A6.65,6.65,0,0,0,11.22,2.73ZM7.22,9V9a.45.45,0,0,1,0-.16A.31.31,0,0,0,7.22,9Z" transform="translate(0.24 -0.67)" fill="url(#acc7dd2c-bdce-45b7-b895-af1275416470)"/><path d="M8,13.33a1.1,1.1,0,0,1-1.56-.23L6.4,13c-2.47-3.1-2.92-4.6-3-5.15a3,3,0,0,1,.73-2.38,3,3,0,0,1,4.49,0,3.26,3.26,0,0,1,.76,2.43,3.27,3.27,0,0,1-.6,1.71.85.85,0,0,1-1.2.2.8.8,0,0,1-.31-.39.9.9,0,0,1,.14-.89,1.59,1.59,0,0,0,.24-.79A1.46,1.46,0,0,0,7.3,6.67a1.24,1.24,0,0,0-.88-.43,1.31,1.31,0,0,0-1,.42,1.21,1.21,0,0,0-.3,1c.13,1,1.76,3.25,3.38,5.17L8,13.33Z" transform="translate(0.24 -0.67)" fill="url(#b10f0995-aa05-4315-912a-e3033f9fc26d)"/><path d="M5.35,11.63c.34.48.69.94,1.05,1.39l.07.08A1.1,1.1,0,0,0,8,13.33l.48-.5c-.67-.8-1.3-1.61-1.91-2.45L5.35,11.64Z" transform="translate(0.24 -0.67)" fill="url(#acc3a175-bb54-4dd6-a40e-ac91b8fb2386)"/></svg>