<svg width="119" height="64" xmlns="http://www.w3.org/2000/svg"><defs><linearGradient x1="6.082%" y1="40.122%" x2="90.356%" y2="63.52%" id="a"><stop stop-color="#73F2D8" offset="0%"/><stop stop-color="#3FE1B0" offset="100%"/></linearGradient></defs><g fill="none" fill-rule="evenodd"><rect fill="url(#a)" x="19" width="100" height="52" rx="26"/><circle fill="#FFFDFD" cx="93" cy="26" r="20"/><path d="M.538 41.538c0-12.15 9.85-22 22-22s22 9.85 22 22-9.85 22-22 22-22-9.85-22-22z" fill="#FFF" fill-rule="nonzero"/><path d="M5 41.538C5 31.852 12.852 24 22.538 24c9.687 0 17.539 7.852 17.539 17.538 0 9.687-7.852 17.539-17.539 17.539C12.852 59.077 5 51.225 5 41.538z" fill="#0060DF" fill-rule="nonzero"/><path d="M22.5 52.032l-.168-.018a9.366 9.366 0 01-6.018-3.641 13.89 13.89 0 01-2.7-7.929c-.114-1.259-.114-4.022-.114-5.559a2.768 2.768 0 012.29-2.733L22.5 31l6.706 1.152a2.767 2.767 0 012.294 2.735c0 1.534 0 4.299-.12 5.557a13.89 13.89 0 01-2.7 7.929 9.366 9.366 0 01-6.018 3.64l-.162.019zm-6-16.96c0 .927-.01 1.747-.02 2.452-.015 1.151-.026 1.996.02 2.498.04 2.37.82 4.669 2.23 6.574a6.334 6.334 0 003.77 2.407 6.331 6.331 0 003.768-2.408 11.359 11.359 0 002.232-6.572c.046-.503.035-1.348.02-2.499-.01-.705-.02-1.525-.02-2.452l-6-1.027-6 1.027zm2.25 1.898l3.75-.642V46.68h-.012a4.027 4.027 0 01-1.95-1.415 8.647 8.647 0 01-1.695-5.295c-.048-.518-.08-1.587-.093-3z" fill="#FFF"/></g></svg>