<svg width="84" height="76" xmlns="http://www.w3.org/2000/svg"><defs><radialGradient cx="100%" cy="0%" fx="100%" fy="0%" r="151.859%" gradientTransform="matrix(-.6585 .6585 -.5762 -.75258 1.659 -.659)" id="a"><stop stop-color="#9D62FC" offset="0%"/><stop stop-color="#FD3296" offset="100%"/></radialGradient></defs><g fill="none" fill-rule="evenodd"><path d="M45.673 58.096c0-9.686 7.852-17.538 17.539-17.538 9.686 0 17.538 7.852 17.538 17.538 0 9.687-7.852 17.539-17.538 17.539-9.687 0-17.539-7.853-17.539-17.539z" fill="#0060DF" fill-rule="nonzero"/><path d="M15.912.438H67.98a15.622 15.622 0 0115.62 15.62v31.34a23.112 23.112 0 00-10.413-10.054V26.472h-62.48v31.24a5.207 5.207 0 005.206 5.207h24.786a22.95 22.95 0 005.258 10.414H15.912a15.62 15.62 0 01-15.62-15.62V16.058A15.62 15.62 0 0115.912.439zm-5.207 20.827h62.48V16.06a5.207 5.207 0 00-5.206-5.207H15.912a5.207 5.207 0 00-5.207 5.207v5.206z" fill="url(#a)"/><path d="M68.254 57.17h-.564v-2.237a4.51 4.51 0 10-9.02 0v2.238h-.563a1.691 1.691 0 00-1.691 1.69v5.655a1.691 1.691 0 001.69 1.692h10.148a1.691 1.691 0 001.691-1.692v-5.654a1.691 1.691 0 00-1.691-1.691zm-7.329-2.237a2.255 2.255 0 114.51 0v2.238h-4.51v-2.238z" fill="#FFF" fill-rule="nonzero"/></g></svg>