<svg width="67" height="76" xmlns="http://www.w3.org/2000/svg"><defs><radialGradient cx="100%" cy="0%" fx="100%" fy="0%" r="151.796%" gradientTransform="scale(-1 -.87564) rotate(-48.793 0 2.205)" id="a"><stop stop-color="#9D62FC" offset="0%"/><stop stop-color="#FD3296" offset="100%"/></radialGradient></defs><path d="M39.507 46.092c.337 1.976.627 3.8.712 5.224a23.45 23.45 0 01-.276 4.75 87.623 87.623 0 0016.519.916l.247-2.55c.95-9.65 4.203-12.225 4.882-17.606.49-3.949.128-7.957-1.059-11.755L39.507 46.092zm-.333 14.595c-.328 1.733-.646 3.5-.84 5.367a7.955 7.955 0 007.499 9.873c5.865.76 8.449-4.635 9.232-7.765.486-2.108.804-4.252.95-6.411-.95.023-1.9.042-2.878.042a86.708 86.708 0 01-13.963-1.106zM65.158 6.193a4.75 4.75 0 00-6.716 0L26.403 38.232c0-.394-.038-.793 0-1.183a120.01 120.01 0 002.052-18.755C27.244 8.757 23.107-.789 16.273.052 8.607 1.002 3.696 12.025 5.02 22.573c.68 5.381 3.933 7.955 4.883 17.606l.247 2.546c4.032.142 8.069.033 12.087-.328l-5.015 5.015c-1.216.057-2.442.133-3.61.133-1.05 0-2.052 0-3.02-.047a45.6 45.6 0 00.802 5.747l-9.945 9.94a4.75 4.75 0 106.715 6.716l56.993-56.993a4.75 4.75 0 000-6.715z" fill="url(#a)" fill-rule="nonzero"/></svg>