<svg xmlns="http://www.w3.org/2000/svg" width="96" height="96" viewBox="0 0 96 96">
  <defs>
    <linearGradient id="icon-a" x1="64.065%" x2="27.226%" y1="6.588%" y2="88.848%">
      <stop offset="0%" stop-color="#FF9640"/>
      <stop offset="60%" stop-color="#FC4055"/>
      <stop offset="100%" stop-color="#E31587"/>
    </linearGradient>
    <linearGradient id="icon-b" x1="64.065%" x2="27.226%" y1="6.588%" y2="88.848%">
      <stop offset="0%" stop-color="#FFF36E" stop-opacity=".8"/>
      <stop offset="9%" stop-color="#FFF36E" stop-opacity=".7"/>
      <stop offset="75%" stop-color="#FFF36E" stop-opacity="0"/>
    </linearGradient>
    <linearGradient id="icon-c" x1="76.537%" x2="33.666%" y1="89.279%" y2="3.042%">
      <stop offset="0%" stop-color="#B833E1"/>
      <stop offset="37%" stop-color="#9059FF"/>
      <stop offset="61%" stop-color="#5B6DF8"/>
      <stop offset="100%" stop-color="#0090ED"/>
    </linearGradient>
    <linearGradient id="icon-d" x1="83.333%" x2="37.602%" y1="101.626%" y2="42.563%">
      <stop offset="0%" stop-color="#722291" stop-opacity=".5"/>
      <stop offset="50%" stop-color="#722291" stop-opacity="0"/>
    </linearGradient>
  </defs>
  <g fill="none" fill-rule="evenodd" transform="translate(11.707)">
    <path fill="url(#icon-a)" fill-rule="nonzero" d="M44.6868293,51.8634146 L44.7570732,51.8634146 C44.9403293,51.8741996 45.124061,51.8741996 45.3073171,51.8634146 C45.1007075,51.8768957 44.8934389,51.8768957 44.6868293,51.8634146 L44.6868293,51.8634146 Z M62.7629268,12.3395122 C55.8402684,5.15026725 46.2729215,1.11344773 36.2926829,1.17013025 C15.9219512,1.17013025 0,17.3619512 0,38.0370732 C0,57.1902439 29.502439,89.795122 32.8741463,93.4595122 C34.0264586,94.7142987 35.7606596,95.2590179 37.4234927,94.8884795 C39.0863257,94.517941 40.425167,93.2884385 40.9356878,91.6631136 C41.4462086,90.0377887 41.0508488,88.2635669 39.8985366,87.0087805 C39.804878,86.915122 32.0663415,78.4390244 24.4214634,68.0195122 C11.4614634,50.3414634 9.5297561,41.6312195 9.5297561,38.0370732 C9.5297561,22.7004878 21.2370732,10.7004878 36.257561,10.7004878 C43.6602656,10.6431785 50.7620071,13.6269257 55.902439,18.9541463 C60.886874,24.1223145 63.5319618,31.1095783 63.2195122,38.2829268 C62.9385366,45.8809756 55.2936585,57.9043902 47.8946341,67.1297561 L45.2487805,69.8809756 C42.6965854,72.0585366 38.844878,71.2273171 36.737561,68.6282927 C38.7512195,71.0985366 40.9756098,73.7560976 43.5043902,76.6126829 C44.6395731,77.9046681 46.2802059,78.6395349 48,78.6263415 L48,78.6263415 C49.7206158,78.6164709 51.3522775,77.8604391 52.4721951,76.5541463 C57.155122,71.1453659 72.2458537,52.4370732 72.7609756,38.6341463 C73.1750907,28.8690804 69.5603922,19.3625079 62.7629268,12.3395122 Z M40.8234146,46.4078049 C40.8234146,46.4078049 40.8234146,46.5131707 40.8234146,46.5717073 C40.8559414,46.2859351 40.9147264,46.0037671 40.9990244,45.7287805 C40.9235966,45.950414 40.8648954,46.1773919 40.8234146,46.4078049 Z"/>
    <path fill="url(#icon-b)" fill-rule="nonzero" d="M44.6868293,51.8634146 L44.7570732,51.8634146 C44.9403293,51.8741996 45.124061,51.8741996 45.3073171,51.8634146 C45.1007075,51.8768957 44.8934389,51.8768957 44.6868293,51.8634146 L44.6868293,51.8634146 Z M62.7629268,12.3395122 C55.8402684,5.15026725 46.2729215,1.11344773 36.2926829,1.17013025 C15.9219512,1.17013025 0,17.3619512 0,38.0370732 C0,57.1902439 29.502439,89.795122 32.8741463,93.4595122 C34.0264586,94.7142987 35.7606596,95.2590179 37.4234927,94.8884795 C39.0863257,94.517941 40.425167,93.2884385 40.9356878,91.6631136 C41.4462086,90.0377887 41.0508488,88.2635669 39.8985366,87.0087805 C39.804878,86.915122 32.0663415,78.4390244 24.4214634,68.0195122 C11.4614634,50.3414634 9.5297561,41.6312195 9.5297561,38.0370732 C9.5297561,22.7004878 21.2370732,10.7004878 36.257561,10.7004878 C43.6602656,10.6431785 50.7620071,13.6269257 55.902439,18.9541463 C60.886874,24.1223145 63.5319618,31.1095783 63.2195122,38.2829268 C62.9385366,45.8809756 55.2936585,57.9043902 47.8946341,67.1297561 L45.2487805,69.8809756 C42.6965854,72.0585366 38.844878,71.2273171 36.737561,68.6282927 C38.7512195,71.0985366 40.9756098,73.7560976 43.5043902,76.6126829 C44.6395731,77.9046681 46.2802059,78.6395349 48,78.6263415 L48,78.6263415 C49.7206158,78.6164709 51.3522775,77.8604391 52.4721951,76.5541463 C57.155122,71.1453659 72.2458537,52.4370732 72.7609756,38.6341463 C73.1750907,28.8690804 69.5603922,19.3625079 62.7629268,12.3395122 Z M40.8234146,46.4078049 C40.8234146,46.4078049 40.8234146,46.5131707 40.8234146,46.5717073 C40.8559414,46.2859351 40.9147264,46.0037671 40.9990244,45.7287805 C40.9235966,45.950414 40.8648954,46.1773919 40.8234146,46.4078049 Z"/>
    <path fill="url(#icon-c)" fill-rule="nonzero" d="M45.2604878,69.8809756 C42.7082927,72.0702439 38.8565854,71.2273171 36.737561,68.6165854 L36.3746341,68.1717073 C22.8058537,51.36 20.3473171,43.1882927 19.902439,40.2497561 C19.2632846,35.5544794 20.7284022,30.8164091 23.9063415,27.3014634 C27.1928906,23.6898203 31.9046026,21.7109013 36.7843902,21.8926829 C41.2907853,22.0253524 45.5360791,24.0376217 48.4917073,27.4419512 C51.636532,31.0805467 53.1514843,35.8496842 52.6829268,40.6360976 C52.4779649,43.9706592 51.3378404,47.1800489 49.3931707,49.8965854 L49.3931707,49.8965854 C48.3740661,51.3104011 46.6629334,52.0531005 44.9341923,51.8319588 C43.2054513,51.610817 41.7363719,50.4613027 41.1059719,48.8364811 C40.4755718,47.2116595 40.7849599,45.3721334 41.9121951,44.0429268 L41.9121951,44.0429268 C42.6898541,42.7383949 43.1360331,41.2631904 43.2117073,39.7463415 C43.4273582,37.567278 42.7372798,35.3954361 41.3034146,33.7404878 C40.0927536,32.3211642 38.3440845,31.4722957 36.48,31.3990244 C34.4015804,31.3128054 32.3900397,32.1431009 30.977561,33.6702439 C29.6702556,35.1015682 29.0731068,37.0433758 29.3502439,38.9619512 C30.0643902,44.2302439 38.9853659,56.6282927 47.8595122,67.0595122 L45.2604878,69.8809756 Z"/>
    <path fill="url(#icon-d)" fill-rule="nonzero" d="M30.6263415,60.6673171 C32.2887805,63.0087805 34.1385366,65.4439024 36.3746341,68.1717073 L36.737561,68.6165854 C38.8565854,71.2273171 42.7082927,72.0585366 45.2604878,69.8809756 L47.9063415,67.1297561 C44.2302439,62.7980488 40.577561,58.1619512 37.4634146,53.8536585 L30.6263415,60.6673171 Z"/>
  </g>
</svg>
